<?xml version="1.0" encoding="UTF-8" standalone="no"?>
<!-- Created with Inkscape (http://www.inkscape.org/) -->

<svg
   xmlns:dc="http://purl.org/dc/elements/1.1/"
   xmlns:cc="http://creativecommons.org/ns#"
   xmlns:rdf="http://www.w3.org/1999/02/22-rdf-syntax-ns#"
   xmlns:svg="http://www.w3.org/2000/svg"
   xmlns="http://www.w3.org/2000/svg"
   xmlns:sodipodi="http://sodipodi.sourceforge.net/DTD/sodipodi-0.dtd"
   xmlns:inkscape="http://www.inkscape.org/namespaces/inkscape"
   version="1.1"
   id="svg10"
   width="3619.2942"
   height="2957.1536"
   viewBox="0 0 3619.2942 2957.1536"
   sodipodi:docname="vlk-obrys-inkscape.svg"
   inkscape:version="0.92.4 (fd57863, 2020-04-02)">
  <metadata
     id="metadata16">
    <rdf:RDF>
      <cc:Work
         rdf:about="">
        <dc:format>image/svg+xml</dc:format>
        <dc:type
           rdf:resource="http://purl.org/dc/dcmitype/StillImage" />
        <dc:title></dc:title>
      </cc:Work>
    </rdf:RDF>
  </metadata>
  <defs
     id="defs14" />
  <sodipodi:namedview
     pagecolor="#ffffff"
     bordercolor="#666666"
     borderopacity="1"
     objecttolerance="10"
     gridtolerance="10"
     guidetolerance="10"
     inkscape:pageopacity="0"
     inkscape:pageshadow="2"
     inkscape:window-width="1920"
     inkscape:window-height="1025"
     id="namedview12"
     showgrid="false"
     inkscape:zoom="0.12519778"
     inkscape:cx="2858.5656"
     inkscape:cy="1479.3116"
     inkscape:window-x="0"
     inkscape:window-y="27"
     inkscape:window-maximized="1"
     inkscape:current-layer="svg10"
     inkscape:snap-page="false"
     fit-margin-top="0"
     fit-margin-left="0"
     fit-margin-right="0"
     fit-margin-bottom="0" />
  <path
     style="fill:#000000;stroke-width:1.33333337"
     d="m 1161.9824,2953.6963 c -3.6666,-1.9004 -7.9409,-4.8216 -9.4982,-6.4916 -1.5574,-1.67 -5.4574,-4.3577 -8.6667,-5.9728 -3.2093,-1.615 -8.5564,-5.7158 -11.8827,-9.113 -7.3298,-7.4863 -16.2289,-12.887 -22.9148,-13.9066 -6.2157,-0.948 -15.0212,-6.9417 -20.8045,-14.1616 -2.4384,-3.0441 -6.9384,-7.0948 -10,-9.0013 -3.0615,-1.9067 -8.9205,-6.6367 -13.0201,-10.5113 -5.1963,-4.9114 -9.2343,-7.488 -13.3335,-8.5079 -9.7516,-2.4265 -14.4382,-5.5373 -26.7149,-17.7324 -7.3881,-7.3391 -14.1005,-12.7069 -18.1172,-14.4883 -14.18725,-6.2918 -20.59915,-21.3726 -21.20205,-49.8672 -0.5871,-27.7456 -3.0007,-69.9794 -4.4955,-78.6666 -0.7572,-4.4 -1.2481,-13.4 -1.091,-20 0.1774,-7.4536 -0.3294,-13.116 -1.3378,-14.9458 -0.8929,-1.62 -2.265,-9.3197 -3.0492,-17.1102 -1.3608,-13.5214 -3.2561,-19.2464 -8.5893,-25.9441 -0.8759,-1.1 -1.9627,-5.9 -2.4152,-10.6666 -0.5847,-6.1588 -2.1796,-11.2899 -5.5117,-17.7319 -3.2268,-6.2384 -4.6891,-10.8499 -4.6891,-14.7881 0,-3.1476 -0.8935,-8.6683 -1.9856,-12.2682 -2.2877,-7.5413 -2.6213,-18.2532 -0.6812,-21.8782 2.8369,-5.301 5.6284,-22.565 5.6052,-34.667 -0.015,-7.546 0.7585,-15.0477 1.912,-18.5564 1.0648,-3.2393 2.2593,-9.5393 2.6544,-14 2.4389,-27.5388 2.2684,-26.7417 6.8285,-31.9348 3.3307,-3.793 4.3334,-6.1582 4.3334,-10.2218 0,-2.9079 0.5684,-5.287 1.2632,-5.287 1.7969,0 7.7404,-12.2937 8.6204,-17.8308 0.4069,-2.5606 3.1496,-8.0958 6.0948,-12.3002 2.9452,-4.2044 5.3549,-8.5476 5.3549,-9.6516 0,-1.1042 0.8401,-2.9547 1.8671,-4.1124 1.0268,-1.1578 3.181,-6.605 4.78725,-12.105 1.606,-5.5 4.6234,-12.7 6.7052,-16 2.0818,-3.3 4.1814,-7.6058 4.666,-9.5685 0.4845,-1.9627 2.0145,-4.5943 3.3998,-5.848 1.3854,-1.2537 3.7628,-5.6045 5.2834,-9.6685 1.5205,-4.0639 4.533,-9.4032 6.6946,-11.865 2.1615,-2.4618 3.93,-5.4106 3.93,-6.5528 0,-1.1421 1.1323,-3.516 2.5162,-5.2753 1.3838,-1.7592 2.9336,-5.4241 3.4438,-8.1441 0.5103,-2.72 1.7347,-5.5752 2.721,-6.345 2.0626,-1.6097 9.9857,-16.939 9.9857,-19.32 0,-0.8749 1.412,-3.5006 3.1377,-5.835 2.8931,-3.9131 5.2681,-8.6206 14.646,-29.029 1.8832,-4.0982 4.348,-8.2181 5.4773,-9.1553 1.1294,-0.9373 2.7044,-4.1843 3.5003,-7.2155 0.7959,-3.0312 3.4624,-9.7113 5.9257,-14.8446 2.4632,-5.1334 4.8435,-11.5834 5.2896,-14.3334 0.446,-2.75 1.3188,-5 1.9394,-5 1.0754,0 2.9648,-5.0629 3.483,-9.3333 0.1335,-1.1 1.2234,-4.3233 2.4219,-7.1628 1.1985,-2.8396 2.1879,-6.4396 2.1987,-8 0.013,-1.5605 0.99,-5.5372 2.1765,-8.8372 1.1864,-3.3 2.3435,-7.8 2.5713,-10 0.8367,-8.0803 3.3772,-20.1425 5.3403,-25.3551 1.8211,-4.8356 1.8059,-5.8597 -0.1564,-10.556 -1.7557,-4.2021 -1.8984,-6.2465 -0.7431,-10.6449 4.4928,-17.1049 5.0603,-23.4483 4.8398,-54.1107 -0.1524,-21.1973 -0.7358,-32.2754 -1.8034,-34.2457 -2.0586,-3.7996 -1.9732,-7.6899 0.336,-15.2989 1.2551,-4.1351 1.8766,-12.603 1.8594,-25.3334 -0.015,-10.571 0.6877,-21.9149 1.57,-25.3677 1.3325,-5.2152 1.2446,-7.3053 -0.533,-12.6667 -1.8852,-5.6856 -1.9185,-7.629 -0.2912,-16.9697 1.2875,-7.3891 1.4467,-11.7821 0.5318,-14.6667 -0.7186,-2.2648 -1.2502,-14.0178 -1.1815,-26.1178 0.068,-12.1 -0.5425,-25.6 -1.358,-30 -0.8244,-4.4474 -1.5908,-25.0979 -1.7261,-46.5016 -0.2432,-38.4988 -0.2435,-38.5019 -3.3286,-41 -3.977,-3.2204 -9.0144,-3.1646 -14.4677,0.1604 -4.4104,2.689 -7.9117,8.9225 -11.1233,19.8029 -0.9408,3.1873 -3.4263,7.3873 -5.5234,9.3333 -2.097,1.946 -5.7744,6.2383 -8.172,9.5383 -2.3974,3.3 -8.568,10.5379 -13.7125,16.0841 -5.1444,5.5463 -11.0582,13.2163 -13.1418,17.0446 -2.358,4.3325 -6.2163,8.7048 -10.2188,11.5804 -3.5368,2.5409 -6.4306,5.125 -6.4306,5.7426 0,1.5876 -20.2564,18.3574 -23.3986,19.3711 -1.43085,0.4616 -11.69755,9.6903 -22.81485,20.5083 -16.131,15.6962 -20.9272,21.2104 -23.7471,27.3006 -1.9857,4.289 -5.3647,8.9612 -7.714,10.6667 -2.2993,1.6692 -9.6132,8.5455 -16.2531,15.2805 -21.7126,22.024 -36.0385,33.2471 -48.7608,38.1995 -3.4038,1.3251 -5.5645,3.5287 -7.8859,8.0421 -1.7586,3.4192 -3.9988,6.8819 -4.9782,7.6948 -0.9795,0.8128 -1.7808,2.1515 -1.7808,2.975 0,2.153 -14.7615,15.5802 -21.4485,19.5097 -3.1199,1.8333 -8.2086,5.7333 -11.3082,8.6667 -10.2155,9.6674 -18.1563,15.7689 -25.4436,19.5497 -3.9528,2.0509 -7.9249,4.3635 -8.8267,5.1391 -0.9018,0.7756 -4.1317,3.0378 -7.1776,5.0273 -10.7398,7.0149 -20.2717,14.9168 -21.0849,17.4792 -0.4934,1.5545 -3.2322,3.4132 -6.8417,4.6431 -3.3104,1.128 -7.9352,3.5848 -10.2772,5.4597 -5.2204,4.1789 -6.165,4.8449 -10.4511,7.3685 -8.583,5.0536 -16.6155,10.3944 -22.2918,14.8219 -3.4001,2.6521 -7.4529,5.2175 -9.0062,5.7008 -1.5533,0.4833 -3.8963,2.0635 -5.2066,3.5113 -1.3104,1.448 -3.656,2.6327 -5.2125,2.6327 -1.5565,0 -4.3136,1.05 -6.1267,2.3333 -6.5152,4.6114 -21.31629,6.8163 -37.29669,5.556 -2.5667,-0.2024 -6.7667,-0.3044 -9.3333,-0.2266 -2.5667,0.077 -7.3667,0.1718 -10.6667,0.2089 -3.3,0.037 -18.9,0.6195 -34.6667,1.294 -17.2933,0.7399 -31.047,0.7439 -34.6665,0.013 -3.3,-0.6688 -17.1,-1.5666 -30.66669,-1.995 -18.8217,-0.5944 -26.7194,-1.3934 -33.3295,-3.3716 -4.7646,-1.426 -11.6646,-2.4898 -15.3334,-2.364 -8.6456,0.2964 -19.9403,-2.102 -24.4448,-5.1908 -3.5964,-2.466 -15.2131,-5.5878 -20.7934,-5.5878 -1.667,0 -5.6712,-1.789 -8.8983,-3.9757 -4.193,-2.8412 -7.4766,-3.9827 -11.507,-4 -6.5273,-0.028 -15.512,-3.2421 -20.4867,-7.3287 -1.9029,-1.563 -6.3973,-3.9637 -9.9874,-5.3349 -3.5902,-1.3711 -9.1582,-4.1611 -12.3734,-6.2001 -3.2152,-2.039 -9.0768,-4.378 -13.0259,-5.1979 -3.9491,-0.8199 -8.8242,-2.8163 -10.8335,-4.4367 -2.0094,-1.6202 -6.0534,-4.4868 -8.9867,-6.37 -2.9333,-1.8832 -9.2333,-6.5642 -14,-10.4022 -7.4663,-6.0148 -25.7496,-16.0902 -29.1926,-16.0902 -1.1658,0 -14.4347,-10.3328 -20.0988,-15.6514 -1.7483,-1.6416 -4.39,-3.3692 -5.8705,-3.8391 -3.9673,-1.2592 -23.693,-14.9664 -27.1714,-18.8812 -1.65,-1.8571 -3.0033,-4.0331 -3.0073,-4.8356 0,-0.8027 -7.2267,-4.932 -16.0504,-9.1764 -9.205,-4.4277 -17.8687,-9.6047 -20.3261,-12.1457 -2.3556,-2.4359 -6.3295,-5.1156 -8.8309,-5.9551 -4.9914,-1.6752 -10.9302,-5.8721 -20.1187,-14.2176 -3.3,-2.9972 -10.5,-8.0511 -16,-11.2305 -5.9317,-3.4292 -14.0961,-9.9076 -20.0684,-15.9243 -5.5376,-5.5787 -11.998,-11.1712 -14.3565,-12.4277 -2.3584,-1.2566 -4.6242,-3.1606 -5.0351,-4.2312 -1.3471,-3.5107 -19.7721,-21.7707 -24.2712,-24.0542 -6.064098,-3.0776 -13.843398,-11.869 -16.402698,-18.537 -1.34663,-3.5084 -3.56033,-6.3044 -6.00003,-7.5783 -12.1695,-6.3543 -21.1353,-14.9904 -27.3963,-26.3889 -1.2082,-2.1998 -6.0414,-7.021 -10.7403,-10.7136 -6.3674,-5.004 -9.5165,-8.6878 -12.3639,-14.4631 -2.1013,-4.262 -4.8647,-8.6491 -6.1408,-9.7491 -1.2762,-1.1 -5.1416,-7.5564 -8.5898,-14.3477 -3.4482,-6.7912 -6.8016997,-12.6767 -7.4521997,-13.0787 -0.6505,-0.402 -1.1828,-2.3069 -1.1828,-4.233 0,-1.9262 -1.1627,-4.7407 -2.5838,-6.2546 -1.4211,-1.514 -3.3616,-5.6628 -4.3123,-9.2196 -1.68910005,-6.3198 -1.64720005,-6.5368 1.8454,-9.5409 2.8481,-2.4499 5.8223,-3.2555 14.6455997,-3.9672 12.2123,-0.9852 22.1858,0.9005 30.4051,5.7485 3.6418,2.148 8.0616,2.9547 20.1244,3.6727 9.8572,0.5868 16.3459,0.4232 17.9091,-0.4516 1.73903,-0.9732 3.89573,-0.8623 7.42173,0.3817 2.7337,0.9646 5.2365,1.4876 5.5617,1.1624 0.3252,-0.3252 6.229498,-0.9021 13.120498,-1.2821 6.8911,-0.3799 13.55,-0.9992 14.7974,-1.3761 1.2475,-0.377 15.9418,-0.9091 32.654,-1.1824 30.1891,-0.4939 33.9245,-0.145 47.7446,4.46 2.2,0.733 9.4,2.0054 16,2.8274 6.6,0.8222 15,2.2975 18.6666,3.2786 3.6667,0.9812 11.1667,2.4993 16.6667,3.3736 15.5475,2.4714 22.4294,4.117 34.6667,8.2892 6.9306,2.3629 15.477,4.1536 22,4.6094 5.8666,0.41 13.2376,1.582 16.3799,2.6046 3.1423,1.0225 8.5423,1.8593 12,1.8594 3.4577,2e-4 11.0867,0.9507 16.9534,2.1124 22.3672,4.4292 36.9221,6.133 64.6667,7.5698 55.2425,2.8608 100.6119,0.975 117.3333,-4.8771 3.3,-1.1549 7.9002,-2.1085 10.22279,-2.1192 2.3225,-0.013 7.0223,-1.2195 10.4439,-2.6861 3.4216,-1.4667 7.8826,-2.6667 9.9133,-2.6667 2.0308,0 5.731,-1.4759 8.2228,-3.2799 2.4917,-1.8038 6.9304,-4.5925 9.8638,-6.197 11.6198,-6.356 33.5047,-20.4011 39.2552,-25.1927 3.343,-2.7856 10.8582,-7.3136 16.7005,-10.0621 5.9178,-2.7842 13.5947,-7.7598 17.3334,-11.2344 3.691,-3.4303 8.5599,-6.9722 10.8197,-7.8708 2.2599,-0.8987 9.62659,-6.8531 16.37059,-13.2319 20.8713,-19.7415 27.4077,-25.5528 31.6256,-28.1179 2.2382,-1.3612 6.0528,-4.979 8.4769,-8.0396 2.6748,-3.3773 7.6081,-7.1806 12.5495,-9.675 4.4782,-2.2606 11.4556,-6.8902 15.5054,-10.288 4.0497,-3.3979 9.6712,-7.346 12.4922,-8.7738 2.8209,-1.4276 6.4209,-4.0004 8,-5.717 1.579,-1.7167 5.4761,-4.9576 8.6602,-7.2023 3.1841,-2.2445 8.6064,-6.5643 12.0496,-9.5993 9.6851,-8.537 24.6104,-19.5183 26.5285,-19.5183 0.5814,0 4.3366,-3.3701 8.3449,-7.4893 4.0083,-4.1191 10.2878,-8.8858 13.9544,-10.5926 3.6667,-1.7068 8.7667,-5.0001 11.3334,-7.3184 2.5666,-2.3182 7.4999,-5.6532 10.9627,-7.4109 3.4628,-1.7577 7.6292,-4.9991 9.2586,-7.2031 1.6294,-2.2038 7.7962,-7.3206 13.704,-11.3706 15.6272,-10.7131 21.4711,-15.4879 23.972,-19.5867 1.2209,-2.0011 7.4372,-7.4011 13.8139,-12 13.6228,-9.8251 23.4646,-19.5193 27.1498,-26.7427 1.9447,-3.812 4.2887,-5.9052 8.89,-7.9386 7.088,-3.1324 8.6794,-4.7531 12.3388,-12.5662 1.4303,-3.0538 5.569,-8.0377 9.197,-11.0753 3.6281,-3.0376 7.9726,-7.8115 9.65485,-10.6087 7.1569,-11.901 12.0462,-18.7636 13.3688,-18.7636 3.4277,0 13.2516,-9.9818 16.4245,-16.6888 2.1092,-4.4586 5.8443,-9.2222 9.8804,-12.6014 4.4173,-3.6984 8.048,-8.5103 11.3717,-15.0714 2.6856,-5.3012 5.94,-10.8384 7.2321,-12.305 1.2922,-1.4667 3.1088,-4.5914 4.037,-6.9436 0.9281,-2.3524 5.3752,-7.8927 9.8824,-12.3118 4.5072,-4.419 9.542,-9.3944 11.1885,-11.0562 7.8096,-7.883 20.1515,-19.2594 23.1989,-21.3844 1.8636,-1.2995 4.1127,-3.7162 4.998,-5.3704 2.8099,-5.2504 20.6187,-23.1576 25.6204,-25.7619 4.378,-2.2796 18.9443,-14.3411 25.7639,-21.3335 4.2389,-4.3463 15.0991,-12.3757 21.7947,-16.1137 3.3141,-1.8503 8.0568,-5.3954 10.5392,-7.8778 2.4825,-2.4824 5.3945,-4.5134 6.4713,-4.5134 1.0768,0 4.0596,-2.9256 6.6284,-6.5012 3.1405,-4.3714 5.9159,-6.7503 8.4713,-7.2615 2.0903,-0.418 7.0016,-3.4924 10.914,-6.832 3.9126,-3.3396 7.5794,-6.072 8.1488,-6.072 0.5694,0 3.9535,-2.592 7.5204,-5.7599 12.2203,-10.8533 15.9335,-13.0666 25.7466,-15.3472 8.9842,-2.0878 9.8185,-2.5906 12.5524,-7.5648 3.1626,-5.754 10.9697,-10.8632 13.1965,-8.6364 2.3055,2.3055 14.0617,1.5215 17.9024,-1.1938 2.3377,-1.6527 6.6256,-2.6946 12.6305,-3.069 5.0002,-0.3118 9.5002,-1.1772 10,-1.9232 1.388,-2.0717 12.3988,-7.0201 17.6074,-7.913 2.549,-0.4371 6.7346,-1.5995 9.3013,-2.5834 5.7975,-2.2221 59.6281,-4.5685 120,-5.2305 36.1099,-0.3961 44.6669,-0.86 51.3333,-2.7831 4.4,-1.2693 12.5,-2.5545 18,-2.856 5.5,-0.3014 13.364,-0.8984 17.4755,-1.3265 4.8788,-0.508 8.5704,-0.1924 10.6277,0.9087 2.1628,1.1576 11.1158,1.778 28.5246,1.9766 15.8514,0.181 26.8628,0.8859 29.3444,1.8787 2.3169,0.9269 6.4836,1.2532 10,0.7831 3.3153,-0.4432 9.9278,-1.024 14.6945,-1.2907 4.7667,-0.2665 12.5667,-1.7335 17.3333,-3.2599 5.0851,-1.6284 12.2635,-2.7824 17.37,-2.7925 5.1146,-0.013 9.7878,-0.7624 11.3334,-1.8245 1.8217,-1.252 10.2102,-2.1288 27.2966,-2.8531 13.5667,-0.5749 27.0667,-1.1516 30,-1.2813 3.4002,-0.1504 6.486,0.642 8.5132,2.1862 2.838,2.1618 6.0628,2.4136 30,2.3427 14.7511,-0.044 29.8202,-0.68 33.4868,-1.4139 3.6667,-0.734 17.1667,-1.8581 30,-2.4981 12.8334,-0.6401 26.1758,-1.7843 29.6501,-2.5428 3.4742,-0.7584 15.083,-2.0016 25.7973,-2.7625 10.7141,-0.761 20.2595,-1.8304 21.2117,-2.3767 2.175,-1.2477 18.5627,-17.0323 24.3408,-23.4452 2.3834,-2.6451 4.3334,-5.7173 4.3334,-6.8273 0,-2.2916 12.8901,-17.909 19.7604,-23.9411 2.5056,-2.2001 6.0794,-6.4137 7.9416,-9.3636 5.4173,-8.5816 13.8797,-14.3097 27.6313,-18.7035 14.1381,-4.5173 33.2128,-12.939 37.4697,-16.5434 9.5792,-8.1111 18.4864,-11.6823 33.4995,-13.4312 6.0331,-0.7027 12.0331,-1.8274 13.3333,-2.4991 1.3003,-0.6716 6.5642,-1.9453 11.6975,-2.8303 5.1333,-0.8849 12.6333,-2.1785 16.6667,-2.8745 15.301,-2.6405 36.733,-5.2007 43.5374,-5.2007 7.687,0 21.7466,-3.8398 30.8914,-8.4368 3.1692,-1.593 9.0852,-6.37124 13.1468,-10.61814 4.166,-4.3561 10.759,-9.4249 15.1268,-11.6297 4.9574,-2.5026 10.2449,-6.7516 14.7005,-11.8135 3.8272,-4.3479 8.3599,-8.5436 10.0725,-9.324 3.1128,-1.4183 17.8579,-22.3895 17.8579,-25.3983 0,-0.8758 1.8157,-5.8594 4.0351,-11.0746 3.0708,-7.2163 4.6613,-14.2883 6.6556,-29.5936 1.4413,-11.0612 3.2422,-23.4114 4.002,-27.4447 0.7597,-4.0333 1.966,-16.3333 2.6806,-27.3333 0.7147,-11 2.198,-24.0184 3.2963,-28.9299 2.5196,-11.2664 2.5655,-22.3319 0.1067,-25.8416 -1.0394,-1.4839 -2.2892,-5.0675 -2.7775,-7.9633 -1.3535,-8.0276 -4.7859,-18.3426 -6.9195,-20.7943 -1.0509,-1.2076 -4.6216,-2.8783 -7.9349,-3.7127 -3.3132,-0.8342 -7.3899,-2.9905 -9.0591,-4.7917 -1.6693,-1.8011 -7.0872,-4.8 -12.0397,-6.6641 -4.9527,-1.8642 -10.926,-4.8548 -13.2743,-6.6459 -2.3481,-1.7911 -10.1926,-5.4005 -17.4321,-8.0212 -7.2395,-2.6205 -15.5707,-6.5356 -18.5139,-8.7 -2.9649,-2.1804 -7.0414,-3.9353 -9.1416,-3.9353 -2.0848,0 -6.0165,-1.1268 -8.7373,-2.504 -2.7208,-1.3771 -7.0469,-2.9214 -9.6136,-3.4315 -2.5667,-0.5101 -8.0907,-2.0735 -12.2756,-3.4743 -4.4508,-1.4896 -9.2145,-2.2256 -11.4772,-1.773 -2.6536,0.5308 -6.1657,-0.3134 -11.1863,-2.6884 -5.585,-2.6423 -9.4097,-3.4622 -16.1497,-3.4622 -8.2665,0 -9.0205,-0.2558 -11.7887,-4 -2.0501,-2.7729 -4.0922,-4 -6.6572,-4 -2.0349,0 -6.7444,-1.2 -10.4653,-2.6666 -3.7209,-1.4667 -8.0541,-2.6667 -9.6293,-2.6667 -1.5752,0 -6.922,-2.1 -11.8818,-4.6667 -7.4033,-3.8312 -10.4673,-4.6666 -17.1156,-4.6666 -8.0325,0 -8.1569,-0.059 -15.3906,-7.2927 -5.7663,-5.7663 -8.8999,-7.7504 -14.9711,-9.4792 -6.2675,-1.7847 -8.9656,-3.5529 -14.6847,-9.6239 -10.6097,-11.2626 -11.2609,-16.2306 -3.698,-28.211 3.928,-6.2224 21.4788,-18.1859 34.3551,-23.418 4.486,-1.8228 9.2672,-4.5066 10.6249,-5.9639 1.3576,-1.4572 4.4011,-3.6448 6.7631,-4.8613 2.3621,-1.2166 6.0947,-3.5518 8.2947,-5.1894 3.0036,-2.2358 7.1552,-3.3261 16.6666,-4.3772 17.6252,-1.9474 28.1538,-4.0513 31.6198,-6.3185 1.6242,-1.0624 3.9316,-1.9316 5.1274,-1.9316 1.196,0 3.891,-1.2221 5.9887,-2.716 2.0979,-1.4937 8.3563,-4.7859 13.9076,-7.3156 5.5513,-2.5299 10.4524,-5.5355 10.8913,-6.6792 0.797,-2.0771 10.1639,-7.3672 16.4652,-9.2992 1.8334,-0.5621 5.862,-2.7539 8.9526,-4.8708 3.0905,-2.1168 8.3929,-4.3668 11.7829,-5.0001 3.39,-0.6334 6.8313,-1.8192 7.6475,-2.6354 0.816,-0.816 3.8009,-1.4837 6.6332,-1.4837 4.6754,0 14.8264,-2.5079 21.6505,-5.3489 1.4667,-0.6107 4.3167,-1.4684 6.3333,-1.9062 2.0167,-0.4376 3.6667,-1.6086 3.6667,-2.6021 0,-3.5947 -36.7712,-42.1428 -40.2001,-42.1428 -4.4452,0 -10.5731,-7.3931 -13.8147,-16.6667 -3.9595,-11.3281 -4.1137,-16.0129 -0.7105,-21.5942 5.0181,-8.2299 6.5118,-8.5896 32.915,-7.9246 24.0694,0.6062 34.305,1.6487 52.477,5.3447 11.6346,2.3663 39.3333,2.7589 52,0.7372 4.7666,-0.7609 12.2666,-1.8171 16.6666,-2.3472 8.8064,-1.0608 9.049,-1.1701 18.7879,-8.4649 3.7332,-2.7963 8.2332,-5.0902 10,-5.0974 1.7667,-0.013 6.22,-1.4137 9.8964,-3.1257 3.6764,-1.7119 8.9248,-3.5329 11.6633,-4.0467 3.6418,-0.6832 5.5168,-1.9738 6.9811,-4.8054 1.1009,-2.1292 4.2212,-5.5523 6.9337,-7.6068 2.7124,-2.0546 6.4631,-5.1474 8.3347,-6.8727 1.8716,-1.7255 5.6609,-4.2917 8.4208,-5.7029 2.7599,-1.4112 6.6964,-4.8828 8.7479,-7.7148 4.166,-5.7511 14.0426,-14.6747 20.3193,-18.3587 2.2677,-1.3309 6.1895,-5.2897 8.7152,-8.7975 2.5257,-3.5076 6.2289,-6.9976 8.2293,-7.7554 2.0004,-0.7579 4.914,-2.5739 6.4747,-4.0356 1.5605,-1.4616 9.3605,-5.8367 17.3333,-9.7222 7.9727,-3.8854 17.4958,-9.444 21.1624,-12.3524 5.9103,-4.6877 17.4047,-11.0181 44,-24.2322 13.1636,-6.5406 27.7716,-12.198 31.4868,-12.1946 1.9179,0 5.0124,-1.1966 6.8771,-2.6633 1.8645,-1.4667 4.1333,-2.6667 5.0417,-2.6667 0.9084,0 4.7139,-1.9882 8.4564,-4.4184 3.7426,-2.4301 9.7811,-6.3457 13.419,-8.7013 6.8636,-4.4444 18.8954,-17.1448 25.934,-27.3748 2.2336,-3.2465 6.465,-7.8067 9.4033,-10.1339 3.0267,-2.397 6.5253,-6.9056 8.0717,-10.4016 1.5012,-3.3937 6.2084,-10.1004 10.4603,-14.9036 12.4612,-14.0766 17.2885,-22.1068 21.2072,-35.2769 3.2315,-10.8608 4.3723,-12.9021 10.9581,-19.6089 4.0431,-4.1175 8.2751,-8.0175 9.4044,-8.6667 1.1292,-0.6493 3.2292,-3.0437 4.6667,-5.3209 2.9984,-4.7504 21.4396,-25.256 29.1268,-32.387398 2.8491,-2.643 7.9491,-7.7894 11.3333,-11.4365 10.0111,-10.7883 13.4587,-14.0941 27.7759,-26.6336 8.9264,-7.818 14.6957,-14.0233 16.7355,-18 1.8446,-3.5965 5.8485,-8.1165 9.8285,-11.0955 4.8241,-3.6108 7.5768,-6.9909 9.7723,-12 5.5516,-12.6662002 6.0094,-13.3890002 10.041,-15.8525002 6.1651,-3.7671 10.7382,-3.13809999 16.089,2.2125 2.5666,2.5667 5.7248,4.6667 7.0182,4.6667 2.5216,0 10.9474,8.1180002 13.4019,12.9124002 0.82,1.6017 1.4909,4.1717 1.4909,5.7109 0,3.3219 5.3987,14.3375 11.1067,22.6624 3.8131,5.5612 4.1505,7.0502 5.134,22.653 0.5789,9.1853 1.3619,17.5065 1.7399,18.4916 1.2817,3.34 0.9222,42.406398 -0.4386,47.670598 -0.7438,2.8779 -2.0112,12.7324 -2.8161,21.8991 -1.2027,13.6951 -2.1588,18.154 -5.3621,25.0088 -2.1442,4.5881 -4.4832,11.5048 -5.1978,15.3704 -0.7146,3.8657 -2.8442,11.1332 -4.7326,16.15 -1.8883,5.0169 -3.4334,10.3275 -3.4334,11.8012 0,5.8761 -17.4926,55.3032 -25.566,72.2392 -2.072,4.3467 -3.7673,8.6967 -3.7673,9.6667 0,0.97 -0.5345,1.7637 -1.1879,1.7637 -3.8986,0 -12.1454,26.2713 -12.1454,38.6915 0,4.39 4.6808,3.0986 10.2209,-2.8196 2.8119,-3.0038 8.2387,-7.4811 12.0596,-9.9496 4.6169,-2.9828 7.9228,-6.406 9.8556,-10.2054 3.7203,-7.3128 13.258,-19.7424 18.5952,-24.2333 3.9541,-3.3273 4.8493,-3.4836 19.9508,-3.4836 8.696,0 17.2,0.5816 18.8977,1.2925 1.6978,0.711 6.6868,4.5716 11.0868,8.5792 l 8,7.2868 -0.032,13.0874 c -0.036,14.9756 -3.8062,29.1968 -12.6596,47.7541 -5.4228,11.3667 -13.8658,35.632 -15.3701,44.1741 -0.4997,2.8376 -2.9176,8.1592 -5.3732,11.8259 -2.4555,3.6667 -6.5387,12.0667 -9.0737,18.6667 -2.5352,6.6 -5.8579,14.521 -7.3839,17.6022 -1.526,3.0812 -2.7745,6.4815 -2.7745,7.5562 0,2.2945 -2.9363,9.3113 -10.7256,25.6317 -5.1747,10.8419 -5.7424,13.0905 -6.698,26.528 -1.105,15.5341 -2.3695,20.1687 -9.2522,33.9057 -4.6701,9.3215 -4.6492,8.4746 -0.7613,30.6904 1.16,6.6286 3.0912,12.7663 4.7027,14.946 1.5038,2.0342 2.7344,5.408 2.7344,7.4976 0,2.0895 0.8809,4.9638 1.9576,6.3874 1.0766,1.4234 1.9766,5.1133 2,8.1997 0.029,3.9068 2.101,9.9827 6.8188,20 9.0045,19.1193 11.5613,27.8979 12.5398,43.0551 0.4499,6.9666 1.4578,16.0757 2.2398,20.2424 1.8153,9.6725 0.9313,24.4145 -1.8246,30.4242 -1.177,2.5667 -3.7242,8.9479 -5.6605,14.1804 -1.9363,5.2326 -5.6073,12.4326 -8.1579,16 -8.5776,11.9979 -10.7481,26.4316 -6.0674,40.3494 8.1072,24.1062 8.1829,24.4742 8.114,39.4702 -0.037,8.0667 -0.8518,25.4426 -1.8102,38.613 -1.8994,26.1025 -1.5537,29.6189 3.8115,38.774 3.3019,5.6342 3.6461,7.6045 4.2587,24.3714 0.3665,10.0328 1.2169,20.4916 1.89,23.2416 0.673,2.75 1.8578,7.55 2.6329,10.6667 2.0269,8.15034 7.1815,16.29274 12.2255,19.31174 6.6848,4.0015 28.1242,23.475 30.2662,27.4908 1.0455,1.9603 5.2455,6.0632 9.3334,9.1176 4.0877,3.0544 9.3782,7.7876 11.7566,10.518 2.3783,2.7304 6.8928,6.4699 10.0324,8.3098 5.587,3.2741 18.6216,16.9785 24.9694,26.2521 1.7569,2.5667 5.4772,7.3012 8.2674,10.5211 2.7903,3.2198 5.0758,6.5198 5.079,7.3333 0,0.8135 1.8005,4.1789 3.9942,7.4789 2.1938,3.3 3.9912,7.6363 3.9943,9.6363 0.013,5.3307 5.6364,19.3015 11.1024,27.56 2.6195,3.9579 5.9676,11.1579 7.4403,16 1.4725,4.842 4.2041,10.8703 6.0702,13.3961 1.8916,2.5604 3.3932,6.3951 3.3939,8.6667 0,4.6607 6.4849,19.1708 9.7877,21.9041 1.2691,1.0503 2.2112,3.7667 2.2112,6.3755 0,5.6201 4.666,19.7791 8.1136,24.6208 2.4256,3.4065 4.8987,12.1719 7.667,27.1739 0.6766,3.6666 1.8732,8.4666 2.6589,10.6666 5.9733,16.7238 6.7185,21.185 5.5681,33.3334 -1.3365,14.1121 -1.928,42.7773 -1.0592,51.3333 0.3351,3.3 1.7336,14.2356 3.1079,24.3014 l 2.4987,18.3012 -3.0104,9.6988 c -1.6559,5.3342 -3.5478,11.7826 -4.2043,14.3296 -0.6565,2.547 -2.0287,5.247 -3.0492,6 -2.4909,1.8378 -4.9603,6.6372 -4.9469,9.6148 0,1.3314 -2.1808,7.5209 -4.8595,13.7542 -4.3827,10.1987 -7.7585,17.1454 -24.7331,50.8946 -2.7032,5.3746 -4.9532,11.1414 -5,12.8149 -0.047,1.6736 -1.0245,5.2736 -2.1728,8 -1.1484,2.7265 -2.6161,7.3572 -3.2617,10.2905 -3.0592,13.8995 -5.0703,24.657 -5.91,31.6138 -0.5961,4.9384 -2.7664,11.12 -6.1764,17.5925 -3.8312,7.2719 -5.4371,12.1265 -5.9199,17.8964 -0.3644,4.3548 -2.1758,12.6381 -4.0254,18.4076 -1.8496,5.7693 -4.4718,15.4015 -5.8271,21.4045 -1.3552,6.0032 -3.7456,12.544 -5.3119,14.5352 -2.0512,2.6078 -2.8032,5.3354 -2.6884,9.7519 0.1644,6.3219 -0.6385,10.144 -5.4894,26.1315 -3.41,11.2381 -3.949,24.3016 -1.3724,33.2604 1.4334,4.9845 3.7561,8.4014 9.5168,14 4.1913,4.0734 8.4305,8.9696 9.4205,10.8804 2.1448,4.1401 15.9584,20.1518 22.2857,25.8321 2.4672,2.2148 8.2704,7.7413 12.8959,12.2809 5.8163,5.7083 10.0924,8.707 13.8649,9.7228 3.0003,0.8079 7.3972,3.1734 9.7708,5.2567 2.3738,2.0832 6.7078,4.7867 9.6311,6.0075 2.9232,1.2209 6.5232,3.3209 8,4.6669 1.4767,1.3459 4.4848,3.3568 6.6848,4.4688 2.2,1.1119 5.5709,3.4801 7.4909,5.2627 1.92,1.7825 7.02,6.0144 11.3334,9.4041 4.3133,3.3896 10.1038,8.8695 12.8678,12.1775 2.764,3.308 8.464,8.0561 12.6667,10.5512 24.1711,14.3504 37.9205,23.8712 43.6412,30.2193 1.4667,1.6275 4.8068,4.0513 7.4225,5.3864 2.6158,1.3351 5.5392,3.3712 6.4966,4.5248 0.9574,1.1536 2.7173,2.1173 3.9108,2.1417 1.1936,0.024 4.5701,1.7868 7.5034,3.9164 4.616,3.3514 10.8058,7.1219 21.3334,12.9958 1.4666,0.8182 4.6325,2.2172 7.0352,3.1086 2.4026,0.8916 6.9026,3.6358 10,6.0983 3.0973,2.4627 6.3761,4.4833 7.2861,4.4904 0.9101,0.013 7.5053,3.0552 14.6561,6.7736 7.1507,3.7184 16.8031,7.6424 21.4496,8.72 4.6466,1.0776 10.6424,3.1353 13.3242,4.5727 2.6817,1.4373 5.9064,2.6133 7.1657,2.6133 1.2593,0 6.9683,2.4703 12.6864,5.4895 6.6676,3.5205 17.3311,7.3592 29.73,10.7022 27.0324,7.2887 42.2527,12.598 49.5636,17.2894 6.3077,4.0477 30.7085,13.3661 66.3305,25.331 12.2664,4.12 20.484,7.662 22.6984,9.7835 3.2675,3.1305 16.3318,10.0095 26.7408,14.0804 7.0546,2.7589 24.1462,13.5869 30.0763,19.0541 2.8915,2.6656 9.3751,8.262 14.408,12.4366 5.0331,4.1744 10.5181,8.8446 12.1889,10.3782 1.671,1.5336 5.803,5.0803 9.1824,7.8815 3.3795,2.8011 6.1444,6.0465 6.1444,7.2119 0,1.1653 3.8059,5.7734 8.4575,10.2402 7.7877,7.4783 8.6355,8.8606 10.7056,17.4548 1.2364,5.1334 3.3593,16.8334 4.7175,26 1.3582,9.1667 3.1408,18.3558 3.9612,20.4202 0.8204,2.0644 1.4916,7.6022 1.4916,12.3064 0,4.865 0.9561,10.9425 2.2176,14.095 2.9397,7.3471 3.3153,30.3747 0.55,33.7167 -1.0446,1.2623 -7.6446,5.1013 -14.6667,8.5313 l -12.7676,6.2363 -13.3285,-0.414 c -10.855,-0.3371 -14.1934,-0.9483 -17.9882,-3.2936 -3.6262,-2.2411 -7.7669,-3.0867 -18.6714,-3.8127 -7.7066,-0.513 -18.5119,-2.1644 -24.0119,-3.6697 -5.5,-1.5053 -12.2895,-2.7472 -15.0876,-2.7597 -5.7836,-0.025 -8.8059,-1.3708 -13.3964,-5.9614 -1.7652,-1.7652 -5.8229,-3.9132 -9.0172,-4.7733 -3.1943,-0.8601 -7.3132,-2.6272 -9.1532,-3.9269 -1.8401,-1.2996 -5.4456,-2.794 -8.0123,-3.321 -2.5666,-0.5268 -9.5817,-3.5856 -15.589,-6.7972 -6.0072,-3.2117 -17.1072,-8.1936 -24.6667,-11.0709 -35.1801,-13.3907 -41.1727,-16.5987 -49.6445,-26.5765 -2.1452,-2.5264 -5.8728,-5.4178 -8.2838,-6.4251 -2.4108,-1.0073 -6.3557,-3.5379 -8.7664,-5.6233 -2.4105,-2.0856 -5.3845,-4.337 -6.6085,-5.003 -1.2241,-0.666 -7.5241,-6.3121 -14,-12.5469 -7.7065,-7.4197 -15.0783,-13.0689 -21.3376,-16.3517 -5.2597,-2.7586 -16.2273,-9.2074 -24.3725,-14.3306 -8.1452,-5.1233 -15.2419,-9.3194 -15.7703,-9.3249 -0.5284,0 -5.6797,-2.7055 -11.4475,-6 -5.7676,-3.2945 -11.534,-5.9901 -12.8138,-5.9901 -1.28,0 -4.361,-1.3775 -6.8467,-3.0611 -7.7551,-5.2529 -24.75,-14.2723 -26.8925,-14.2723 -1.1247,0 -6.0536,-1.7985 -10.9531,-3.9968 -4.8995,-2.1982 -12.3055,-4.9426 -16.4576,-6.0988 -4.1523,-1.156 -13.2495,-3.8214 -20.2161,-5.9233 -6.9667,-2.1017 -17.982,-4.7785 -24.4786,-5.9483 -6.4965,-1.1697 -14.1226,-3.3056 -16.9469,-4.7464 -2.8243,-1.4409 -6.0048,-2.6197 -7.0679,-2.6197 -2.653,0 -24.158,-7.1008 -31.5066,-10.4035 -6.055,-2.721 -18.7359,-5.6797 -34.6667,-8.0882 -14.37,-2.1726 -32.9621,-6.5812 -37.3728,-8.862 -2.2829,-1.1806 -9.358,-3.0495 -15.7224,-4.1532 -8.7229,-1.5127 -14.2477,-3.4615 -22.4433,-7.9166 -5.9796,-3.2504 -12.0156,-5.9098 -13.4134,-5.9098 -1.3978,0 -6.7054,-2.0336 -11.7948,-4.5191 -5.0893,-2.4855 -14.407,-6.0755 -20.7061,-7.9776 -10.2509,-3.0956 -39.6301,-16.3971 -51.8597,-23.4795 -2.5552,-1.4797 -5.86,-2.6905 -7.344,-2.6905 -1.4839,0 -5.3932,-1.4143 -8.6875,-3.1428 -3.2941,-1.7287 -7.6283,-3.5373 -9.6316,-4.0193 -2.0032,-0.482 -5.6824,-2.6678 -8.176,-4.8571 -2.4936,-2.1895 -5.1053,-3.9808 -5.8039,-3.9808 -2.9709,0 -27.8264,-10.9364 -30.4437,-13.3952 -1.5747,-1.4793 -7.862,-4.4576 -13.9717,-6.6181 -6.5427,-2.3136 -12.7911,-5.542 -15.2022,-7.8544 -2.2514,-2.1595 -8.2936,-5.5242 -13.4269,-7.4771 -16.2571,-6.1851 -19.1147,-7.5839 -22.1991,-10.8672 -3.0861,-3.2849 -8.2412,-5.9976 -21.1342,-11.1211 -4.0334,-1.6028 -9.6018,-4.7016 -12.3743,-6.8862 -5.7716,-4.5479 -10.5243,-5.7974 -14.3215,-3.7651 -3.9772,2.1285 -3.1832,5.3281 3.05,12.2907 3.1052,3.4684 8.6458,11.0662 12.3124,16.884 3.6667,5.8178 7.957,11.19 9.5339,11.938 1.5769,0.7481 3.5443,3.4118 4.3719,5.9194 0.8276,2.5078 2.8373,5.172 4.4661,5.9207 4.5104,2.0733 19.4004,16.2201 23.7945,22.6068 2.8282,4.1105 5.3802,6.1144 9.2714,7.2803 3.6816,1.103 7.0485,3.6144 10.7121,7.9901 2.9385,3.5099 9.0569,9.1301 13.5965,12.4896 13.6223,10.0812 23.4836,19.3469 27.0288,25.3963 1.8412,3.1418 5.3382,7.2306 7.7712,9.0864 3.2607,2.487 4.6503,4.7922 5.2863,8.7694 0.4745,2.9676 1.9063,7.1067 3.1817,9.198 7.0967,11.637 47.1851,52.0947 55.4847,55.9959 3.1545,1.4828 8.2715,5.8017 11.5771,9.7713 9.2724,11.1355 26.5245,26.8808 37.2268,33.9755 5.3697,3.5596 11.3232,7.5257 13.23,8.8136 1.9069,1.2877 6.7412,3.5759 10.7429,5.0844 4.0019,1.5087 9.8384,5.1051 12.9703,7.9919 3.1318,2.8868 6.3862,5.2488 7.232,5.2488 0.8457,0 7.609,2.9402 15.0297,6.5341 7.4207,3.5937 16.1921,7.1336 19.4921,7.8664 3.3,0.7329 12,3.4495 19.3334,6.0368 13.2957,4.6909 23.485,6.9129 50,10.9036 14.739,2.2183 32.729,6.29 41.5646,9.4073 2.8934,1.0208 10.475,3.0715 16.848,4.557 18.4632,4.3036 50.4351,13.3422 64.9207,18.3536 7.3333,2.5369 16.9333,5.7021 21.3333,7.0336 4.4,1.3314 20.9,6.7424 36.6667,12.0242 38.0396,12.7435 46.3321,15.2731 61.3333,18.7095 13.5296,3.0992 32.4235,9.636 36.5292,12.6383 2.2658,1.6568 2.5048,3.9525 2.5907,24.8804 0.065,15.8724 -0.5569,26.3784 -1.9971,33.7218 -2.0149,10.2751 -10.1405,30.3639 -16.2037,40.0606 -1.6055,2.5674 -4.1211,6.5718 -5.5903,8.8984 -4.4494,7.0464 -9.0244,8.7892 -23.9954,9.1406 -12.5474,0.2947 -22.714,-0.8032 -36.6667,-3.9594 -3.3,-0.7466 -8.73,-1.3835 -12.0667,-1.4154 -3.3366,-0.032 -6.6366,-0.5742 -7.3333,-1.2052 -1.9881,-1.8005 -13.7039,-5.1822 -23.9333,-6.9084 -5.1334,-0.8661 -12.0334,-2.3392 -15.3334,-3.2733 -10.7982,-3.0567 -24.443,-5.9847 -37.1473,-7.9711 -6.8644,-1.0733 -13.1644,-2.502 -14,-3.1746 -2.3716,-1.9094 -20.6664,-9.0739 -29.4496,-11.533 -4.3617,-1.2212 -11.2617,-3.8866 -15.3333,-5.9234 -4.0718,-2.0367 -9.714,-4.1242 -12.5386,-4.6387 -4.27,-0.7777 -19.293,-7.3965 -29.3105,-12.9133 -1.3452,-0.7408 -9.4452,-2.4976 -18,-3.904 -11.9729,-1.9682 -18.0099,-3.7539 -26.2207,-7.7558 -5.8666,-2.8593 -13.9548,-6.266 -17.9734,-7.5705 -4.0188,-1.3044 -10.6188,-3.854 -14.6667,-5.6657 -4.048,-1.8118 -18.6576,-6.8174 -32.4659,-11.1234 -13.8084,-4.306 -29.2925,-9.9301 -34.4093,-12.4981 -5.1168,-2.5679 -13.4413,-5.6101 -18.4988,-6.7604 -5.0576,-1.1503 -10.6053,-3.2004 -12.3283,-4.5557 -1.723,-1.3554 -5.368,-2.8835 -8.1,-3.396 -4.723,-0.8862 -24.1272,-8.746 -25.8536,-10.4723 -0.4482,-0.4484 -4.81,-0.8152 -9.6926,-0.8152 -5.829,0 -12.0484,-1.08 -18.1111,-3.1449 -10.6483,-3.6268 -42.5615,-18.689 -43.7821,-20.6639 -0.452,-0.7315 -3.0636,-2.0604 -5.8034,-2.9532 -7.091,-2.3107 -24.5932,-10.5276 -27.0782,-12.7128 -1.1532,-1.014 -4.8298,-2.6663 -8.1702,-3.6715 -3.3402,-1.0053 -9.2968,-3.9669 -13.2365,-6.5813 -3.9397,-2.6144 -11.2995,-6.6089 -16.3551,-8.8765 -5.0554,-2.2678 -11.2264,-5.9095 -13.713,-8.0928 -2.4867,-2.1834 -5.3194,-3.9698 -6.295,-3.9698 -0.9756,0 -3.3061,-1.2052 -5.1788,-2.6784 -1.8728,-1.473 -5.4037,-3.0457 -7.8465,-3.4948 -4.2791,-0.7866 -22.3988,-10.4309 -28.9547,-15.4112 -1.7488,-1.3285 -3.9526,-2.4156 -4.8973,-2.4156 -0.9448,0 -3.5177,-1.8 -5.7177,-4 -2.2,-2.2 -5.3083,-4 -6.9074,-4 -1.5989,0 -6.435,-2.9477 -10.7466,-6.5505 -5.3224,-4.4472 -10.7364,-7.5035 -16.862,-9.5185 -9.4679,-3.1148 -20.9654,-8.4148 -24.3558,-11.2275 -1.1,-0.9125 -3.9104,-2.2991 -6.2452,-3.0813 -2.3349,-0.7822 -8.8112,-4.503 -14.3916,-8.2687 -5.5804,-3.7656 -14.3361,-8.5517 -19.457,-10.6357 -5.121,-2.084 -11.3548,-5.348 -13.853,-7.2534 -2.498,-1.9054 -4.8702,-3.4644 -5.2717,-3.4644 -0.4013,0 -3.9432,-2.0557 -7.8708,-4.5681 -3.9277,-2.5125 -10.6096,-5.4739 -14.8487,-6.5808 -4.239,-1.1071 -8.9872,-3.1852 -10.5513,-4.6181 -1.5643,-1.4331 -5.844,-4.1948 -9.5107,-6.1372 -8.6765,-4.5966 -14.2808,-8.6608 -23.6581,-17.1571 -8.2364,-7.4627 -35.5031,-34.3727 -41.0613,-40.5243 -1.8624,-2.0613 -9.7426,-9.5868 -17.5115,-16.7234 -12.8888,-11.8399 -14.7223,-14.1427 -20.9471,-26.3083 -5.3692,-10.4932 -6.8253,-14.6868 -6.8378,-19.6909 -0.016,-6.694 -1.9239,-14.6679 -6.536,-27.3251 -1.7835,-4.8945 -2.7815,-10.8388 -2.7815,-16.5672 0,-7.5809 -0.732,-10.4152 -4.8331,-18.7152 -3.7217,-7.5323 -5.2217,-12.7672 -6.5236,-22.7661 -2.4669,-18.9488 -3.9736,-23.4539 -9.4529,-28.2648 -4.6748,-4.1044 -4.9651,-4.1714 -14.1709,-3.2642 -5.1691,0.5094 -14.2631,1.0427 -20.209,1.1852 -10.7029,0.2567 -34.2094,3.5351 -43.7573,6.1027 -4.6365,1.2469 -15.2248,2.7852 -19.7199,2.8649 -1.1,0.02 -4.857,0.6168 -8.3489,1.3272 -3.492,0.7106 -11.292,1.4487 -17.3333,1.6403 -16.3502,0.5188 -24.5182,1.9664 -31.8375,5.6427 -4.2799,2.1497 -10.3012,3.6805 -17.2204,4.378 -12.9249,1.3029 -19.2804,5.131 -26.4576,15.9364 -4.7488,7.1492 -4.8009,7.3792 -4.6836,20.6816 1.1793,133.7228 2.1539,180.5746 3.8711,186.1185 3.1538,10.1823 3.6437,22.3852 1.5001,37.3696 -1.1044,7.7199 -2.4271,24.2199 -2.9395,36.6667 -0.5122,12.4466 -1.7064,25.2448 -2.6534,28.4401 -1.0998,3.7103 -1.3002,6.9197 -0.5546,8.8809 2.5452,6.6943 6.6576,26.5167 6.6576,32.0904 0,4.7036 1.921,9.6294 9.4483,24.2282 10.0948,19.5781 12.0516,22.4408 16.2519,23.7738 1.4749,0.4682 5.4133,2.5835 8.7518,4.7007 3.3386,2.1173 7.7824,3.8496 9.8752,3.8496 2.093,0 5.4471,0.8491 7.4539,1.8868 2.0067,1.0377 7.2269,2.2644 11.6004,2.7261 9.8313,1.0376 10.8437,1.2103 31.3317,5.344 26.9035,5.4282 33.6615,7.0651 39.9768,9.6831 3.2872,1.3628 10.7767,3.5608 16.6434,4.8847 5.8666,1.3237 15.2862,4.1473 20.9325,6.2744 5.6463,2.1272 11.3463,3.8709 12.6667,3.875 5.1932,0.016 12.6878,2.9928 16.9441,6.7298 2.4588,2.1589 7.6924,4.958 11.6303,6.2202 3.9378,1.2623 9.5597,3.8738 12.493,5.8034 2.9334,1.9297 10.4336,6.033 16.6674,9.1185 11.9552,5.9176 31.5017,22.0123 38.5249,31.7217 4.1544,5.7434 6.8132,14.8678 6.7961,23.3227 -0.013,4.7256 -0.8362,6.6129 -4.6666,10.6539 -2.5603,2.701 -4.6551,6.0176 -4.6551,7.37 0,6.6916 -8.4111,12.3905 -18.2671,12.3769 -13.3866,-0.019 -44.4284,5.3291 -51.3333,8.8432 -1.9803,1.0077 -5.0521,1.8323 -6.8264,1.8323 -5.3105,0 -19.9385,5.2034 -23.5436,8.3749 -1.8496,1.6271 -6.8493,4.7571 -11.1104,6.9553 -15.9103,8.2082 -28.7175,20.952 -31.5895,31.4335 -3.1732,11.5809 -19.79,21.0308 -34.496,19.6177 -7.6062,-0.7309 -17.8906,-5.7484 -24.257,-11.8342 -2.6162,-2.501 -8.5824,-6.6472 -13.2584,-9.2139 -4.6762,-2.5667 -13.3356,-8.8135 -19.2435,-13.8817 -10.2943,-8.8315 -21.5233,-15.411 -26.3489,-15.4386 -1.2508,-0.013 -4.4846,-1.513 -7.186,-3.3464 -2.7016,-1.8333 -6.2508,-3.3333 -7.8871,-3.3333 -3.8643,0 -18.3433,-6.0679 -40.0036,-16.7647 -9.5429,-4.7128 -17.8879,-8.5686 -18.5443,-8.5686 -0.6565,0 -6.4498,-2.4212 -12.8741,-5.3806 -6.4243,-2.9593 -14.5793,-6.1876 -18.1224,-7.174 -7.6203,-2.1216 -24.8043,-9.3585 -35.1084,-14.786 -4.0333,-2.1244 -10.5539,-5.2036 -14.4901,-6.8425 -15.4966,-6.4525 -19.5343,-13.6375 -22.7508,-40.4836 -0.659,-5.5 -1.9291,-12.8837 -2.8224,-16.4081 -1.0568,-4.1698 -1.397,-12.3087 -0.9736,-23.2994 0.4592,-11.9205 0.1545,-18.0786 -1.0354,-20.9264 -1.6869,-4.0376 -3.9177,-20.1513 -5.9112,-42.6994 -1.2284,-13.8951 -2.7948,-21.0548 -5.8338,-26.6667 -1.1915,-2.2 -2.17,-4.66 -2.1744,-5.4667 0,-0.8065 -1.8239,-3.9729 -4.043,-7.0362 -2.2192,-3.0635 -5.5286,-9.0035 -7.3544,-13.2002 -1.8258,-4.1966 -4.3138,-9.4302 -5.5289,-11.6302 -6.5832,-11.919 -9.4711,-18.2632 -12.2428,-26.8951 -1.7135,-5.336 -4.9615,-11.8177 -7.3496,-14.6667 -2.3536,-2.8077 -6.9085,-9.7549 -10.1221,-15.4382 -3.811,-6.7395 -6.6563,-10.3334 -8.1814,-10.3334 -1.4846,0 -5.6041,-4.9214 -11.2856,-13.4833 -9.1101,-13.7283 -9.9857,-14.5129 -27.3597,-24.5167 -10.5242,-6.0597 -22.9648,-17.8141 -26.2723,-24.8232 -3.5016,-7.4204 -18.2427,-21.0217 -31.6017,-29.1586 -5.1334,-3.1267 -9.5387,-6.226 -9.7896,-6.8872 -0.2511,-0.6612 -2.6511,-2.3224 -5.3334,-3.6914 -2.6824,-1.369 -5.9956,-3.726 -7.3626,-5.2376 -1.3671,-1.5116 -5.5671,-4.3513 -9.3334,-6.3105 -6.664,-3.4665 -12.49,-8.7624 -17.1233,-15.5655 -1.2516,-1.8377 -3.9311,-3.7568 -5.9544,-4.2645 -4.3596,-1.0943 -15.8437,-9.26 -16.9023,-12.0181 -0.4077,-1.0627 -4.2125,-2.9412 -8.4552,-4.1746 -4.2425,-1.2333 -8.6209,-2.7301 -9.7298,-3.326 -12.0842,-6.4945 -34.2064,-8.7249 -40.1695,-4.0498 -1.7489,1.371 -5.2799,2.929 -7.8465,3.4621 -11.0438,2.294 -36,23.7212 -36,30.9093 0,1.6195 -2.1319,6.4375 -4.7375,10.7067 -2.6057,4.2692 -5.2713,8.6623 -5.9236,9.7623 -0.6524,1.1 -3.1069,6.0582 -5.4547,11.0184 -4.3082,9.1026 -8.969,14.162 -20.094,21.8126 -4.0548,2.7884 -7.0748,6.3127 -9.1406,10.6667 -1.6968,3.5763 -5.8672,9.5023 -9.2676,13.1689 -3.4003,3.6667 -8.6154,9.9667 -11.5891,14 -2.9737,4.0334 -8.1427,9.7334 -11.4865,12.6667 -25.0435,21.9689 -30.5943,26.6024 -36.4019,30.3859 -5.276,3.437 -7.4911,6.1321 -11.2379,13.6738 -7.0284,14.1468 -8.969,16.5608 -15.8917,19.7682 -3.4952,1.6193 -9.5993,6.149 -13.5648,10.0661 -3.9656,3.9171 -11.4101,10.2547 -16.5435,14.0835 -5.1333,3.8288 -10.5333,8.328 -12,9.9981 -1.4666,1.6701 -5.0666,4.1055 -8,5.4117 -2.9333,1.3063 -7.4333,4.8251 -10,7.8195 -2.5666,2.9944 -9.1666,10.2268 -14.6666,16.0721 -5.5,5.8454 -11.2,11.9059 -12.6667,13.4682 -7.8188,8.3278 -21.6453,19.9156 -23.7656,19.9174 -1.3379,0 -5.8379,3.2207 -10,7.1546 -4.1623,3.9338 -8.8735,7.8313 -10.4695,8.6609 -3.952,2.0547 -10.6569,12.2012 -15.7472,23.8301 -3.0165,6.8914 -5.5148,10.5154 -8.7544,12.6984 -2.4932,1.6803 -5.9357,5.1407 -7.6498,7.6899 -1.7143,2.5492 -4.535,6.1349 -6.2684,7.9683 -3.8902,4.1145 -14.7634,12 -16.5466,12 -0.7224,0 -5.1708,3.2724 -9.8852,7.272 -4.7145,3.9994 -11.2558,8.9494 -14.5364,11 -17.1234,10.7025 -19.9877,13.0273 -24.5873,19.957 -2.6737,4.0282 -6.6303,8.6246 -8.7921,10.2142 -2.162,1.5896 -5.0795,5.1332 -6.4834,7.8746 -1.404,2.7416 -7.27,9.9928 -13.0356,16.1139 -5.7657,6.1211 -11.1781,12.428 -12.0277,14.0153 -0.8495,1.5875 -2.3769,2.8863 -3.3943,2.8863 -1.0173,0 -2.5269,2.052 -3.3546,4.56 -0.8278,2.508 -2.3743,5.2815 -3.4368,6.1633 -1.0624,0.8818 -1.9318,3.0015 -1.9318,4.7104 0,2.0219 -1.8629,4.6044 -5.3333,7.3932 -4.1079,3.3012 -5.3431,5.2306 -5.3757,8.3963 -0.023,2.2605 -0.9234,5.2748 -2,6.6983 -1.0767,1.4236 -1.9576,3.4848 -1.9576,4.5808 0,1.0958 -1.2419,3.3144 -2.7596,4.93 -1.5178,1.6156 -3.0752,4.9405 -3.4611,7.3888 -0.3859,2.4482 -2.4328,6.423 -4.5488,8.833 -5.2252,5.9512 -7.6605,10.971 -8.6712,17.8726 -0.8181,5.5877 -2.1737,10.0768 -7.39,24.4733 -1.3287,3.6667 -2.4352,8.8441 -2.4592,11.5056 -0.024,2.6613 -1.4852,8.0613 -3.2473,12 -2.7148,6.0679 -3.5356,11.4353 -5.3771,35.1611 -2.5705,33.1184 -2.3293,23.5925 -2.1119,83.3788 0.1791,49.2357 0.753,56.9344 4.5578,61.1385 2.1882,2.418 3.089,4.8132 6.8265,18.1494 1.2331,4.4 2.7401,9.2 3.3491,10.6666 0.6089,1.4667 1.8068,5.9667 2.6621,10 3.6092,17.0203 14.5463,34.862 36.4683,59.4911 20.0862,22.5665 22.1624,25.2293 22.1624,28.4253 0,1.6091 0.7173,4.2362 1.5938,5.8379 1.0963,2.0029 1.4992,9.9632 1.2903,25.4913 -0.2705,20.1167 -0.6016,23.0612 -3.036,27 -1.5028,2.4316 -3.5283,4.4211 -4.5012,4.4211 -0.9728,0 -4.5469,2.7 -7.9424,6 -3.3955,3.3 -7.2005,6.004 -8.4557,6.0088 -1.2552,0 -4.0822,1.2305 -6.2822,2.7237 -6.6254,4.4968 -13.0566,7.0534 -18.2324,7.2476 -2.8284,0.1067 -7.055,1.6498 -10,3.652 -2.8054,1.9075 -8.5405,4.161 -12.7444,5.0076 -4.2038,0.8468 -7.9892,2.0994 -8.412,2.7834 -1.2577,2.0349 -4.8769,1.3272 -11.9445,-2.3358 z"
     id="path20"
     inkscape:connector-curvature="0"
     sodipodi:nodetypes="ccccccccccccccccsccsccccccsscssccsccccscccscccsccscccccccccccccccccccccccccccscccsccccscccsccccccscsccccccccccsscccsscscscccccccccccccccccsccssccccccscsccccccccccccscccscccccccccccccccscccsccccccsccsccccccccccsccscccssccsccccccsccccccccccccccccccccsccscccccscccccsccccccccccccccscscccscscscsssccccccccsccccccssccssccsccccccccccsccccccccccsccccccccccccccscccscsccccccccscsssccccsccccccccsscccccsccccccccccccccccccccccccccccccscccccsccsccccccsccccccccccccccccccccscccscccccccccsccccccccccssccsscccccscsccscccccccccccccscscccccscccscscccscccscccccccccccccccccccccccccccscccccccccccccccccccccscccccccccccccccsccsccsccscccssscccccccsccccccccccscccsccccccccccccccscccsccccccccccccccsccscccccccccscscccccccccccccccccscccccccccccccccscccccccccccccccccccccccccsccccsccsccscccsccsccscsccccccscccsscccccccc" />
</svg>
