<?xml version="1.0" encoding="UTF-8" standalone="no"?>
<!-- Created with Inkscape (http://www.inkscape.org/) -->

<svg
   xmlns:dc="http://purl.org/dc/elements/1.1/"
   xmlns:cc="http://creativecommons.org/ns#"
   xmlns:rdf="http://www.w3.org/1999/02/22-rdf-syntax-ns#"
   xmlns:svg="http://www.w3.org/2000/svg"
   xmlns="http://www.w3.org/2000/svg"
   xmlns:sodipodi="http://sodipodi.sourceforge.net/DTD/sodipodi-0.dtd"
   xmlns:inkscape="http://www.inkscape.org/namespaces/inkscape"
   width="1200"
   height="630"
   viewBox="-0.4 0 317.49999 166.6875"
   version="1.1"
   id="svg13"
   inkscape:version="0.92.4 (fd57863, 2020-04-02)"
   sodipodi:docname="vlk-v-obdelniku-inkscape.svg"
   inkscape:export-filename="/home/mima/Projects/vlci-keblany-web/static/images/common/vlk-v-obdelniku.png"
   inkscape:export-xdpi="96"
   inkscape:export-ydpi="96">
  <defs
     id="defs7" />
  <sodipodi:namedview
     id="base"
     pagecolor="#ffffff"
     bordercolor="#666666"
     borderopacity="1.0"
     inkscape:pageopacity="0.0"
     inkscape:pageshadow="2"
     inkscape:zoom="0.98994949"
     inkscape:cx="599.42038"
     inkscape:cy="287.37285"
     inkscape:document-units="mm"
     inkscape:current-layer="layer1"
     showgrid="false"
     viewbox-x="-0.4"
     fit-margin-top="0"
     fit-margin-left="0"
     fit-margin-right="0"
     fit-margin-bottom="0"
     inkscape:window-width="1920"
     inkscape:window-height="1025"
     inkscape:window-x="0"
     inkscape:window-y="27"
     inkscape:window-maximized="1"
     units="px" />
  <metadata
     id="metadata10">
    <rdf:RDF>
      <cc:Work
         rdf:about="">
        <dc:format>image/svg+xml</dc:format>
        <dc:type
           rdf:resource="http://purl.org/dc/dcmitype/StillImage" />
        <dc:title></dc:title>
      </cc:Work>
    </rdf:RDF>
  </metadata>
  <g
     inkscape:groupmode="layer"
     id="layer2"
     inkscape:label="Obdélník"
     transform="translate(99.888882,-538.72206)">
    <rect
       id="rect52"
       width="317.4454"
       height="166.63292"
       x="-100.26158"
       y="538.74933"
       style="fill:#fddd5c;fill-opacity:1;stroke:#fddd5c;stroke-width:0.05458299;stroke-opacity:1" />
  </g>
  <g
     inkscape:label="Vlk"
     inkscape:groupmode="layer"
     id="layer1"
     transform="translate(492.86893,-284.25338)">
    <path
       style="fill:#000000;stroke-width:0.06989261"
       d="m -372.97186,443.6471 c -0.19221,-0.0996 -0.41626,-0.25274 -0.49789,-0.34028 -0.0817,-0.0875 -0.28607,-0.22843 -0.4543,-0.3131 -0.16823,-0.0845 -0.44853,-0.29962 -0.62289,-0.4777 -0.38422,-0.39242 -0.85071,-0.67552 -1.20118,-0.72898 -0.32582,-0.0497 -0.78739,-0.36387 -1.09056,-0.74233 -0.12783,-0.15958 -0.36371,-0.37192 -0.52419,-0.47185 -0.16049,-0.0999 -0.46761,-0.34789 -0.68251,-0.55099 -0.27239,-0.25746 -0.48406,-0.39252 -0.69894,-0.44598 -0.51117,-0.1272 -0.75684,-0.29027 -1.40039,-0.92953 -0.38727,-0.38471 -0.73913,-0.66608 -0.94969,-0.75946 -0.74368,-0.32982 -1.07979,-1.12034 -1.11139,-2.61402 -0.0308,-1.45441 -0.1573,-3.66829 -0.23566,-4.12366 -0.0398,-0.23065 -0.0654,-0.70242 -0.0571,-1.04839 0.01,-0.39072 -0.0173,-0.68753 -0.0701,-0.78345 -0.0468,-0.085 -0.11873,-0.48854 -0.15983,-0.89691 -0.0713,-0.70878 -0.17068,-1.00889 -0.45024,-1.35998 -0.046,-0.0577 -0.10289,-0.30927 -0.1266,-0.55914 -0.0307,-0.32282 -0.11425,-0.5918 -0.28893,-0.92949 -0.16913,-0.32701 -0.24579,-0.56874 -0.24579,-0.77519 0,-0.16499 -0.0469,-0.45438 -0.10409,-0.64308 -0.11993,-0.39532 -0.13741,-0.95683 -0.0357,-1.14685 0.14871,-0.27788 0.29503,-1.18284 0.29382,-1.81722 -7.8e-4,-0.39557 0.0398,-0.78879 0.10016,-0.97272 0.0558,-0.1698 0.11843,-0.50004 0.13914,-0.73387 0.12785,-1.44358 0.1189,-1.40178 0.35795,-1.67401 0.17459,-0.19883 0.22715,-0.32281 0.22715,-0.53582 0,-0.15242 0.0298,-0.27714 0.0662,-0.27714 0.0943,0 0.40576,-0.64442 0.45188,-0.93469 0.0213,-0.13422 0.16511,-0.42437 0.31949,-0.64476 0.15439,-0.2204 0.2807,-0.44806 0.2807,-0.50593 0,-0.0579 0.044,-0.15488 0.0979,-0.21558 0.0537,-0.0607 0.16674,-0.34622 0.25094,-0.63454 0.0842,-0.28829 0.24234,-0.66572 0.35148,-0.8387 0.10912,-0.17298 0.21918,-0.39869 0.24458,-0.50158 0.0255,-0.10289 0.10563,-0.24083 0.17822,-0.30655 0.0726,-0.0658 0.19726,-0.29378 0.27695,-0.50682 0.0796,-0.21302 0.23763,-0.4929 0.35093,-0.62195 0.11331,-0.12904 0.20601,-0.28362 0.20601,-0.34349 0,-0.0599 0.0594,-0.18431 0.1319,-0.27653 0.0725,-0.0922 0.15377,-0.28433 0.18052,-0.4269 0.0268,-0.1426 0.091,-0.29225 0.14264,-0.33261 0.10813,-0.0843 0.52344,-0.88793 0.52344,-1.01274 0,-0.0458 0.0741,-0.18351 0.16448,-0.30587 0.15165,-0.20512 0.27615,-0.4519 0.76773,-1.52169 0.0986,-0.21482 0.22792,-0.43079 0.28712,-0.47992 0.0592,-0.049 0.14176,-0.21933 0.18348,-0.37822 0.0417,-0.15891 0.1815,-0.50907 0.31062,-0.77816 0.12913,-0.26909 0.2539,-0.60718 0.27728,-0.75134 0.0235,-0.14416 0.0691,-0.2621 0.10169,-0.2621 0.0564,0 0.15541,-0.26539 0.18258,-0.48925 0.007,-0.0577 0.0641,-0.22662 0.12696,-0.37546 0.0628,-0.14886 0.11471,-0.33757 0.11529,-0.41936 6e-4,-0.0818 0.0519,-0.29026 0.11413,-0.46325 0.0623,-0.17297 0.12284,-0.40886 0.13478,-0.52418 0.0438,-0.42357 0.17703,-1.05587 0.27994,-1.3291 0.0955,-0.25349 0.0947,-0.30717 -0.009,-0.55335 -0.092,-0.22027 -0.0995,-0.32744 -0.0389,-0.55799 0.23549,-0.89664 0.26524,-1.22916 0.25369,-2.83646 -0.009,-1.11115 -0.0386,-1.69187 -0.0946,-1.79515 -0.10792,-0.19916 -0.10344,-0.40309 0.0176,-0.80196 0.0659,-0.21675 0.0984,-0.66063 0.0974,-1.32795 -7.8e-4,-0.55414 0.036,-1.14877 0.0822,-1.32977 0.0698,-0.27337 0.0653,-0.38294 -0.0279,-0.66398 -0.0987,-0.29804 -0.10049,-0.39991 -0.0152,-0.88955 0.0675,-0.38732 0.0758,-0.61762 0.0279,-0.76881 -0.0377,-0.11872 -0.0655,-0.73481 -0.0619,-1.36909 0.003,-0.63427 -0.0285,-1.34194 -0.0712,-1.57258 -0.0433,-0.23313 -0.0835,-1.31562 -0.0904,-2.43758 -0.0128,-2.01809 -0.0128,-2.01826 -0.17448,-2.14921 -0.20847,-0.1688 -0.47253,-0.16587 -0.75839,0.009 -0.23118,0.14096 -0.41472,0.46771 -0.58307,1.03807 -0.0494,0.16707 -0.17961,0.38722 -0.28954,0.48923 -0.10991,0.10202 -0.30269,0.32702 -0.42837,0.50001 -0.12567,0.17298 -0.44913,0.55238 -0.7188,0.84311 -0.26968,0.29074 -0.57967,0.69279 -0.6889,0.89347 -0.1236,0.22711 -0.32586,0.4563 -0.53565,0.60704 -0.1854,0.1332 -0.33709,0.26864 -0.33709,0.30102 0,0.0832 -1.06183,0.96229 -1.22654,1.01543 -0.075,0.0241 -0.61318,0.50795 -1.19595,1.07503 -0.84557,0.82278 -1.09699,1.11183 -1.2448,1.43108 -0.10409,0.22483 -0.28123,0.46974 -0.40437,0.55914 -0.12053,0.0875 -0.50392,0.44796 -0.85197,0.801 -1.13817,1.15448 -1.88912,1.7428 -2.55603,2.0024 -0.17842,0.0695 -0.29168,0.18497 -0.41337,0.42156 -0.0922,0.17923 -0.20962,0.36074 -0.26095,0.40335 -0.0513,0.0427 -0.0934,0.11272 -0.0934,0.15595 0,0.11284 -0.77379,0.81672 -1.12431,1.02269 -0.16355,0.0961 -0.4303,0.30054 -0.59278,0.4543 -0.53549,0.50676 -0.95174,0.82661 -1.33375,1.02479 -0.20719,0.10748 -0.4154,0.22873 -0.46268,0.26939 -0.0473,0.0406 -0.21658,0.15924 -0.37624,0.26353 -0.56298,0.36771 -1.06264,0.78192 -1.10526,0.91624 -0.0259,0.0815 -0.16944,0.17893 -0.35865,0.24339 -0.17352,0.0592 -0.41594,0.18792 -0.53871,0.28619 -0.27365,0.21907 -0.32317,0.25398 -0.54785,0.38627 -0.44992,0.2649 -0.87097,0.54486 -1.16852,0.77695 -0.17823,0.13902 -0.39068,0.27349 -0.4721,0.29882 -0.0815,0.0253 -0.20424,0.10814 -0.27293,0.18407 -0.0687,0.0759 -0.19165,0.138 -0.27323,0.138 -0.0816,0 -0.22612,0.055 -0.32116,0.12233 -0.34153,0.24172 -1.11738,0.35729 -1.95508,0.29123 -0.13454,-0.0109 -0.3547,-0.0159 -0.48924,-0.0118 -0.13455,0.003 -0.38617,0.01 -0.55914,0.0109 -0.17298,0.002 -0.99073,0.0324 -1.81722,0.0678 -0.9065,0.0388 -1.62746,0.039 -1.81719,5.3e-4 -0.17299,-0.0351 -0.89637,-0.0821 -1.60753,-0.10464 -0.98662,-0.0311 -1.40063,-0.073 -1.74712,-0.17673 -0.24976,-0.0747 -0.61145,-0.13051 -0.80377,-0.12392 -0.45319,0.0156 -1.04526,-0.11014 -1.28137,-0.27209 -0.18854,-0.12927 -0.79747,-0.29291 -1.08999,-0.29291 -0.0874,0 -0.29728,-0.0937 -0.46645,-0.20841 -0.2198,-0.14893 -0.39192,-0.20877 -0.60318,-0.20967 -0.34217,-10e-4 -0.81315,-0.16995 -1.07391,-0.38418 -0.0997,-0.0819 -0.33535,-0.20776 -0.52354,-0.27965 -0.18819,-0.0719 -0.48007,-0.21811 -0.64861,-0.325 -0.16853,-0.10683 -0.47579,-0.22949 -0.6828,-0.27247 -0.20701,-0.043 -0.46256,-0.14762 -0.56789,-0.23257 -0.1053,-0.085 -0.31731,-0.23519 -0.47108,-0.33391 -0.15375,-0.0987 -0.484,-0.34409 -0.73387,-0.54528 -0.39138,-0.3153 -1.34978,-0.84344 -1.53025,-0.84344 -0.0611,0 -0.75667,-0.54164 -1.05357,-0.82043 -0.0917,-0.086 -0.23013,-0.17662 -0.30773,-0.20125 -0.20797,-0.066 -1.24198,-0.78452 -1.42432,-0.98974 -0.0865,-0.0973 -0.15743,-0.21141 -0.15763,-0.25348 0,-0.042 -0.37883,-0.25853 -0.84137,-0.48103 -0.48251,-0.2321 -0.93666,-0.50346 -1.06547,-0.63667 -0.12349,-0.12769 -0.33179,-0.26815 -0.46291,-0.31216 -0.26165,-0.0878 -0.57296,-0.3078 -1.05461,-0.74528 -0.17298,-0.15711 -0.55041,-0.42203 -0.83871,-0.5887 -0.31094,-0.17975 -0.73892,-0.51935 -1.05199,-0.83474 -0.29027,-0.29243 -0.62892,-0.58559 -0.75254,-0.65146 -0.12364,-0.0659 -0.24241,-0.16567 -0.26394,-0.22179 -0.0707,-0.18404 -1.03646,-1.14121 -1.27229,-1.26091 -0.31788,-0.16133 -0.72567,-0.62217 -0.85982,-0.97169 -0.0706,-0.18392 -0.18663,-0.33048 -0.31452,-0.39726 -0.63791,-0.33308 -1.10791,-0.78578 -1.43611,-1.38329 -0.0634,-0.1153 -0.31667,-0.36803 -0.56298,-0.5616 -0.33378,-0.26231 -0.49887,-0.45541 -0.64811,-0.75815 -0.11015,-0.2234 -0.25501,-0.45338 -0.3219,-0.51104 -0.0668,-0.0577 -0.26952,-0.3961 -0.45028,-0.75209 -0.18075,-0.356 -0.35653,-0.66452 -0.39065,-0.6856 -0.0341,-0.0211 -0.062,-0.12091 -0.062,-0.22188 0,-0.10104 -0.0609,-0.2485 -0.13543,-0.32786 -0.0745,-0.0793 -0.17622,-0.29684 -0.22605,-0.48329 -0.0886,-0.33128 -0.0864,-0.34266 0.0968,-0.50013 0.14929,-0.12842 0.3052,-0.17064 0.76772,-0.20796 0.64015,-0.0517 1.16296,0.0472 1.59381,0.30134 0.19091,0.1126 0.4226,0.15488 1.05491,0.19253 0.51671,0.0308 0.85685,0.0222 0.93879,-0.0237 0.0911,-0.051 0.20421,-0.0452 0.38904,0.02 0.14331,0.0506 0.2745,0.078 0.29154,0.0609 0.017,-0.0169 0.32655,-0.0473 0.68778,-0.0673 0.36122,-0.0199 0.71028,-0.0524 0.77567,-0.0722 0.0654,-0.0198 0.83566,-0.0477 1.7117,-0.062 1.5825,-0.0259 1.7783,-0.007 2.50275,0.23379 0.1153,0.0385 0.49273,0.10508 0.8387,0.14821 0.34597,0.0431 0.78629,0.12045 0.97849,0.17187 0.19221,0.0514 0.58537,0.13101 0.87366,0.17684 0.815,0.12956 1.17574,0.2158 1.81722,0.43452 0.3633,0.12386 0.8113,0.21773 1.15323,0.24162 0.30752,0.0214 0.6939,0.083 0.85862,0.13653 0.16472,0.0535 0.44779,0.0974 0.62903,0.0974 0.18126,1e-5 0.58116,0.0498 0.8887,0.11073 1.17247,0.23217 1.93543,0.32149 3.38979,0.3968 2.89578,0.14996 5.27402,0.0511 6.15054,-0.25566 0.17298,-0.0606 0.41413,-0.11049 0.53588,-0.11107 0.12174,-5.3e-4 0.3681,-0.064 0.54747,-0.14081 0.17935,-0.0769 0.41318,-0.1398 0.51964,-0.1398 0.10639,0 0.30042,-0.0773 0.43104,-0.17192 0.13061,-0.0946 0.36329,-0.24073 0.51705,-0.32485 0.60911,-0.33317 1.75631,-1.06941 2.05775,-1.32058 0.17522,-0.14603 0.56916,-0.38338 0.87542,-0.52745 0.31021,-0.14595 0.71263,-0.40677 0.90861,-0.58891 0.19348,-0.17982 0.4487,-0.36547 0.56717,-0.41257 0.11845,-0.0471 0.50461,-0.35924 0.85813,-0.69362 1.09406,-1.03484 1.4367,-1.33946 1.65779,-1.47391 0.11733,-0.0713 0.3173,-0.261 0.44436,-0.42144 0.1402,-0.17704 0.39882,-0.37641 0.65783,-0.50716 0.23476,-0.11851 0.60051,-0.36118 0.81278,-0.5393 0.2123,-0.17811 0.50697,-0.38507 0.65484,-0.4599 0.14788,-0.0749 0.33658,-0.20971 0.41936,-0.2997 0.0827,-0.09 0.28706,-0.25988 0.45397,-0.37754 0.16691,-0.11765 0.45114,-0.34409 0.63162,-0.50318 0.5077,-0.44751 1.29007,-1.02314 1.39062,-1.02314 0.0305,0 0.22732,-0.17666 0.43743,-0.39259 0.21011,-0.21592 0.53929,-0.46579 0.73148,-0.55526 0.19222,-0.0895 0.45956,-0.2621 0.59409,-0.38362 0.13454,-0.12153 0.39315,-0.29635 0.57466,-0.38848 0.18153,-0.0921 0.39992,-0.26205 0.48533,-0.37758 0.0854,-0.11554 0.40867,-0.38374 0.71836,-0.59604 0.81917,-0.56158 1.12551,-0.81187 1.2566,-1.02673 0.064,-0.10486 0.38986,-0.38796 0.72412,-0.62902 0.7141,-0.51504 1.22999,-1.0232 1.42317,-1.40185 0.10191,-0.19982 0.22482,-0.30954 0.46602,-0.41615 0.37155,-0.16419 0.45496,-0.24913 0.64679,-0.6587 0.0749,-0.16008 0.29193,-0.42133 0.4821,-0.58055 0.19019,-0.15924 0.41792,-0.40949 0.50611,-0.55612 0.37515,-0.62383 0.63145,-0.98357 0.70077,-0.98357 0.17969,0 0.69465,-0.52324 0.86097,-0.87482 0.11062,-0.23372 0.30635,-0.48341 0.51793,-0.66056 0.23154,-0.19386 0.42187,-0.4461 0.59609,-0.79004 0.14078,-0.27788 0.31138,-0.56813 0.37911,-0.64501 0.0677,-0.0769 0.16297,-0.24067 0.21162,-0.36398 0.0486,-0.12331 0.28176,-0.41374 0.51802,-0.64539 0.23627,-0.23163 0.50019,-0.49243 0.5865,-0.57955 0.40938,-0.41322 1.05633,-1.00956 1.21607,-1.12097 0.0978,-0.068 0.21559,-0.19479 0.262,-0.2815 0.14729,-0.27522 1.08082,-1.21392 1.343,-1.35043 0.2295,-0.11949 0.99306,-0.75174 1.35054,-1.11829 0.22219,-0.22784 0.79149,-0.64873 1.14246,-0.84466 0.17373,-0.097 0.42234,-0.28283 0.55246,-0.41297 0.13013,-0.13011 0.28278,-0.23658 0.33923,-0.23658 0.0565,0 0.21279,-0.15335 0.34745,-0.3408 0.16463,-0.22914 0.31011,-0.35384 0.44406,-0.38063 0.10955,-0.022 0.36702,-0.18307 0.57211,-0.35813 0.20509,-0.17506 0.39731,-0.31829 0.42716,-0.31829 0.0299,0 0.20724,-0.13587 0.3942,-0.30193 0.64059,-0.56893 0.83524,-0.68495 1.34964,-0.80449 0.47095,-0.10945 0.51467,-0.1358 0.65799,-0.39655 0.16577,-0.30162 0.57502,-0.56944 0.69175,-0.45272 0.12085,0.12085 0.7371,0.0798 0.93842,-0.0626 0.12255,-0.0866 0.34732,-0.14124 0.66209,-0.16087 0.26211,-0.0164 0.498,-0.0617 0.52421,-0.10071 0.0727,-0.10857 0.64993,-0.36799 0.92296,-0.4148 0.13361,-0.0229 0.35302,-0.0839 0.48757,-0.13541 0.3039,-0.11647 3.12567,-0.23948 6.29032,-0.27419 1.89288,-0.0208 2.34143,-0.0451 2.69088,-0.14589 0.23064,-0.0665 0.65524,-0.1339 0.94355,-0.14971 0.2883,-0.0158 0.70053,-0.0471 0.91605,-0.0695 0.25575,-0.0267 0.44925,-0.0109 0.5571,0.0477 0.11342,0.0607 0.58268,0.0932 1.49524,0.10355 0.83092,0.01 1.40814,0.0464 1.53822,0.0985 0.12145,0.0486 0.33987,0.0657 0.52419,0.0411 0.1738,-0.0232 0.52041,-0.0536 0.77028,-0.0676 0.24987,-0.014 0.65874,-0.0908 0.9086,-0.17088 0.26656,-0.0853 0.64286,-0.14586 0.91054,-0.14638 0.2681,-6e-4 0.51307,-0.04 0.59408,-0.0956 0.0955,-0.0656 0.53522,-0.11154 1.43088,-0.14955 0.71116,-0.0301 1.41882,-0.0604 1.57259,-0.0672 0.17823,-0.009 0.33998,0.0337 0.44625,0.11461 0.14877,0.1133 0.3178,0.12652 1.57259,0.1228 0.77324,-0.002 1.56314,-0.0356 1.75535,-0.0741 0.19221,-0.0384 0.89988,-0.0973 1.57258,-0.13095 0.67273,-0.0335 1.37212,-0.0935 1.55425,-0.13329 0.18212,-0.0398 0.79064,-0.10486 1.35228,-0.14481 0.56162,-0.0399 1.06199,-0.096 1.11191,-0.12458 0.11401,-0.0654 0.97305,-0.89283 1.27592,-1.22898 0.12494,-0.13866 0.22717,-0.29971 0.22717,-0.3579 0,-0.12013 0.67568,-0.93877 1.03582,-1.25497 0.13133,-0.11529 0.31868,-0.3362 0.4163,-0.49083 0.28397,-0.44985 0.72756,-0.75011 1.44842,-0.98043 0.74111,-0.2368 1.74099,-0.67826 1.96414,-0.86721 0.50213,-0.42517 0.96904,-0.61237 1.75603,-0.70405 0.31624,-0.0368 0.63076,-0.0957 0.69891,-0.131 0.0682,-0.0352 0.34409,-0.10191 0.61318,-0.14836 0.26908,-0.0464 0.66224,-0.11424 0.87366,-0.15068 0.80208,-0.13842 1.92553,-0.27261 2.28221,-0.27261 0.40294,0 1.13994,-0.20128 1.61931,-0.44226 0.16612,-0.0836 0.47624,-0.33397 0.68914,-0.5566 0.21838,-0.22834 0.56399,-0.49405 0.79294,-0.60961 0.25987,-0.13119 0.53704,-0.35393 0.7706,-0.61927 0.20061,-0.22791 0.43823,-0.44785 0.52799,-0.48877 0.16318,-0.0744 0.9361,-1.17363 0.9361,-1.33135 0,-0.0459 0.0951,-0.30714 0.21152,-0.58053 0.16097,-0.37827 0.24435,-0.74899 0.3489,-1.55128 0.0756,-0.57983 0.16993,-1.22721 0.20977,-1.43863 0.0399,-0.21143 0.10311,-0.85619 0.14051,-1.4328 0.0375,-0.57662 0.11518,-1.25903 0.17279,-1.51649 0.13208,-0.59057 0.13448,-1.17062 0.005,-1.35461 -0.0545,-0.0778 -0.12,-0.26563 -0.1456,-0.41742 -0.0709,-0.42081 -0.25087,-0.96152 -0.36272,-1.09004 -0.055,-0.0632 -0.24225,-0.15087 -0.41594,-0.19461 -0.17367,-0.0437 -0.38737,-0.15676 -0.47488,-0.25118 -0.0875,-0.0945 -0.3715,-0.25161 -0.63111,-0.34932 -0.25962,-0.0978 -0.57273,-0.25449 -0.69582,-0.34837 -0.12309,-0.0938 -0.53429,-0.28311 -0.91378,-0.42048 -0.37951,-0.13736 -0.81621,-0.34259 -0.9705,-0.45605 -0.15542,-0.11436 -0.3691,-0.20627 -0.47919,-0.20627 -0.10933,0 -0.31539,-0.0591 -0.458,-0.13127 -0.14262,-0.0722 -0.3694,-0.15314 -0.50395,-0.17988 -0.13454,-0.0268 -0.42411,-0.10868 -0.64347,-0.18212 -0.23332,-0.078 -0.48302,-0.1167 -0.60164,-0.093 -0.13909,0.0279 -0.32321,-0.0164 -0.58637,-0.14092 -0.29277,-0.13851 -0.49326,-0.18149 -0.84656,-0.18149 -0.43333,0 -0.47286,-0.0134 -0.61797,-0.20967 -0.10748,-0.14536 -0.21451,-0.20969 -0.34897,-0.20969 -0.1066,0 -0.35352,-0.0629 -0.54858,-0.13978 -0.19504,-0.0769 -0.42218,-0.13978 -0.50476,-0.13978 -0.0826,0 -0.36284,-0.11014 -0.62284,-0.24463 -0.38807,-0.20082 -0.54869,-0.24462 -0.89719,-0.24462 -0.42105,0 -0.42758,-0.003 -0.80676,-0.38228 -0.30227,-0.30226 -0.46653,-0.40627 -0.78479,-0.49689 -0.32853,-0.0936 -0.46996,-0.18624 -0.76975,-0.50448 -0.55617,-0.59039 -0.59029,-0.8508 -0.19385,-1.47881 0.2059,-0.32617 1.1259,-0.95329 1.80087,-1.22756 0.23516,-0.0955 0.48579,-0.23622 0.55695,-0.31262 0.0711,-0.0765 0.2307,-0.19106 0.35452,-0.25483 0.12381,-0.0638 0.31949,-0.18619 0.43481,-0.27203 0.15744,-0.11719 0.37508,-0.17435 0.87366,-0.22944 0.92389,-0.10202 1.4758,-0.21237 1.65749,-0.33122 0.0852,-0.0557 0.20608,-0.10125 0.26877,-0.10125 0.0627,0 0.20396,-0.0641 0.31393,-0.14237 0.11003,-0.0783 0.43802,-0.25087 0.72902,-0.38348 0.291,-0.13261 0.54791,-0.29016 0.57092,-0.35012 0.0418,-0.1089 0.53278,-0.38618 0.8631,-0.48746 0.0961,-0.0294 0.30728,-0.14436 0.46929,-0.25532 0.162,-0.11095 0.43994,-0.22891 0.61765,-0.2621 0.1777,-0.0331 0.35809,-0.0954 0.40088,-0.13815 0.0427,-0.0428 0.19924,-0.0778 0.34771,-0.0778 0.24508,0 0.77719,-0.13146 1.1349,-0.28038 0.0769,-0.032 0.22628,-0.077 0.33199,-0.1 0.10573,-0.0229 0.19221,-0.0843 0.19221,-0.13639 0,-0.18844 -1.92753,-2.20911 -2.10727,-2.20911 -0.23301,0 -0.55424,-0.38755 -0.72416,-0.87366 -0.20755,-0.59382 -0.21563,-0.83938 -0.0372,-1.13195 0.26304,-0.43141 0.34135,-0.45027 1.72539,-0.41542 1.26169,0.0318 1.79824,0.0865 2.75081,0.28017 0.60989,0.12404 2.06182,0.14463 2.72581,0.0387 0.24986,-0.0399 0.643,-0.0953 0.87365,-0.12305 0.46162,-0.0555 0.47435,-0.0613 0.98486,-0.44371 0.19569,-0.14659 0.43158,-0.26683 0.52419,-0.2672 0.0925,-6.1e-4 0.32605,-0.074 0.51877,-0.16385 0.19271,-0.0898 0.46782,-0.1852 0.61138,-0.21213 0.1909,-0.0358 0.28918,-0.10344 0.36594,-0.2519 0.0578,-0.11167 0.22127,-0.29104 0.36347,-0.39874 0.14218,-0.1077 0.33879,-0.26982 0.4369,-0.36027 0.0981,-0.0904 0.29674,-0.22497 0.44141,-0.29893 0.14467,-0.0739 0.35103,-0.25596 0.45855,-0.40441 0.21839,-0.30148 0.73611,-0.76924 1.06513,-0.96236 0.11887,-0.0697 0.32445,-0.27728 0.45685,-0.46116 0.1324,-0.18387 0.32652,-0.36681 0.43138,-0.40653 0.10486,-0.0398 0.25759,-0.13492 0.33939,-0.21154 0.0818,-0.0767 0.49068,-0.30596 0.90861,-0.50963 0.41793,-0.20368 0.91712,-0.49505 1.10932,-0.64752 0.30981,-0.24572 0.91235,-0.57755 2.30646,-1.27023 0.69003,-0.34286 1.45577,-0.63941 1.65051,-0.63924 0.10049,0 0.26276,-0.0627 0.36051,-0.1396 0.0978,-0.0769 0.21665,-0.1398 0.26428,-0.1398 0.0475,0 0.24709,-0.10421 0.44327,-0.2316 0.19619,-0.12739 0.51273,-0.33264 0.70343,-0.45611 0.35978,-0.23298 0.99047,-0.89873 1.35944,-1.43498 0.11705,-0.17019 0.33889,-0.40922 0.49291,-0.53122 0.15866,-0.12564 0.34205,-0.36198 0.42311,-0.54524 0.0788,-0.17789 0.32546,-0.52945 0.54832,-0.78123 0.65321,-0.7379 0.90626,-1.15884 1.11167,-1.8492 0.16941,-0.56932 0.22921,-0.67632 0.57443,-1.0279 0.21193,-0.21583 0.43377,-0.42027 0.49296,-0.4543 0.0592,-0.0341 0.16928,-0.15956 0.24464,-0.27891 0.15718,-0.24902 1.12385,-1.32391 1.52681,-1.69773 0.14935,-0.13855 0.41669,-0.40832 0.59408,-0.5995 0.52478,-0.56552 0.70551,-0.7388 1.456,-1.39611 0.46791,-0.40983 0.77033,-0.73511 0.87727,-0.94356 0.0967,-0.18853 0.30657,-0.42546 0.51521,-0.58162 0.25287,-0.18928 0.39716,-0.36647 0.51225,-0.62904 0.29101,-0.66396 0.31502,-0.70184 0.52635,-0.83097 0.32317,-0.19747 0.56289,-0.16449 0.84338,0.116 0.13453,0.13454 0.30008,0.24462 0.36788,0.24462 0.13218,0 0.57386,0.42554 0.70253,0.67686 0.043,0.084 0.0782,0.21869 0.0782,0.29936 0,0.17414 0.28298,0.75156 0.5822,1.18795 0.19988,0.29153 0.21756,0.36957 0.26912,1.18746 0.0304,0.48149 0.0713,0.91768 0.0912,0.96933 0.0672,0.17508 0.0484,2.22291 -0.0229,2.49886 -0.039,0.15086 -0.10541,0.66743 -0.14761,1.14794 -0.063,0.71789 -0.1132,0.95162 -0.28109,1.31094 -0.11236,0.24051 -0.23499,0.60308 -0.27246,0.80571 -0.0375,0.20264 -0.14908,0.58361 -0.24809,0.84658 -0.099,0.26298 -0.17997,0.54136 -0.17997,0.61862 0,0.30802 -0.91694,2.89896 -1.34015,3.78673 -0.10857,0.22786 -0.19748,0.45587 -0.19748,0.50673 0,0.0508 -0.028,0.0924 -0.0623,0.0924 -0.20437,0 -0.63666,1.37711 -0.63666,2.02819 0,0.23011 0.24537,0.16242 0.53579,-0.14781 0.14739,-0.15745 0.43185,-0.39216 0.63215,-0.52155 0.24202,-0.15636 0.4153,-0.33579 0.51662,-0.53497 0.19503,-0.38332 0.69498,-1.03488 0.97476,-1.27029 0.20726,-0.17441 0.25419,-0.18261 1.04581,-0.18261 0.45583,0 0.90161,0.0305 0.9906,0.0677 0.089,0.0372 0.35051,0.23963 0.58117,0.44971 l 0.41935,0.38197 -10e-4,0.68603 c -0.002,0.78502 -0.19953,1.53048 -0.66362,2.50325 -0.28427,0.59582 -0.72684,1.8678 -0.80569,2.31558 -0.0262,0.14874 -0.15295,0.4277 -0.28166,0.61991 -0.12872,0.19221 -0.34275,0.63253 -0.47564,0.97849 -0.1329,0.34598 -0.30707,0.76119 -0.38706,0.9227 -0.0801,0.16152 -0.14544,0.33976 -0.14544,0.3961 0,0.12028 -0.15392,0.48809 -0.56223,1.3436 -0.27125,0.56832 -0.30101,0.68619 -0.3511,1.39057 -0.0579,0.8143 -0.12421,1.05723 -0.48501,1.77732 -0.2448,0.48863 -0.24369,0.44423 -0.04,1.60878 0.0608,0.34747 0.16204,0.66921 0.24651,0.78346 0.0789,0.1066 0.14334,0.28348 0.14334,0.39301 0,0.10956 0.0462,0.2602 0.10268,0.33484 0.0565,0.0746 0.10355,0.26802 0.10486,0.42982 10e-4,0.2048 0.11014,0.52329 0.35744,1.04839 0.47201,1.00222 0.60603,1.46239 0.65733,2.25692 0.0236,0.3652 0.0763,0.84268 0.11741,1.0611 0.0951,0.50703 0.0488,1.27979 -0.0956,1.59482 -0.0616,0.13454 -0.19523,0.46904 -0.29672,0.74333 -0.10148,0.27429 -0.29394,0.65171 -0.42763,0.83871 -0.44964,0.62892 -0.56341,1.38553 -0.31805,2.1151 0.42497,1.26363 0.42894,1.28292 0.42533,2.069 -0.002,0.42285 -0.0447,1.33369 -0.0949,2.02406 -0.0996,1.36828 -0.0815,1.55263 0.1998,2.03252 0.17309,0.29535 0.19113,0.39863 0.22324,1.27754 0.0192,0.52591 0.0638,1.07415 0.0992,1.21831 0.0353,0.14416 0.0973,0.39577 0.13802,0.55915 0.10628,0.42724 0.37645,0.85406 0.64085,1.0123 0.35042,0.20976 1.47426,1.23055 1.58655,1.44106 0.0548,0.10279 0.27497,0.31783 0.48925,0.47794 0.21427,0.16011 0.49159,0.40822 0.61626,0.55135 0.12468,0.14312 0.36133,0.33914 0.52591,0.43559 0.29286,0.17163 0.97612,0.89 1.30888,1.37612 0.0921,0.13454 0.28711,0.38273 0.43337,0.55151 0.14627,0.16878 0.26607,0.34177 0.26623,0.38442 0,0.0426 0.0944,0.21904 0.20938,0.39203 0.11494,0.17299 0.20922,0.4003 0.20938,0.50513 5.3e-4,0.27943 0.29546,1.01177 0.58198,1.44469 0.13731,0.20745 0.31283,0.58488 0.39002,0.83869 0.0772,0.25383 0.22038,0.56982 0.31819,0.70223 0.0991,0.13421 0.17787,0.33522 0.17791,0.4543 0,0.24432 0.33993,1.00493 0.51307,1.14821 0.0665,0.055 0.11588,0.19745 0.11588,0.33419 0,0.2946 0.24459,1.03682 0.42531,1.29061 0.12715,0.17858 0.25679,0.63806 0.40191,1.42444 0.0355,0.19221 0.0982,0.44382 0.13937,0.55913 0.31312,0.87667 0.35219,1.11051 0.29187,1.74732 -0.07,0.73976 -0.10114,2.24238 -0.0555,2.69087 0.0176,0.17299 0.0909,0.74623 0.16292,1.27386 l 0.13097,0.95935 -0.1578,0.50841 c -0.0868,0.27961 -0.18597,0.61763 -0.22038,0.75115 -0.0344,0.13351 -0.10639,0.27503 -0.15985,0.31451 -0.13056,0.0963 -0.26002,0.34792 -0.25931,0.50401 0,0.0698 -0.11436,0.39424 -0.25473,0.72098 -0.22974,0.53461 -0.4067,0.89876 -1.2965,2.66788 -0.1417,0.28172 -0.25964,0.58402 -0.2621,0.67174 -0.002,0.0877 -0.0536,0.27643 -0.11389,0.41935 -0.0602,0.14292 -0.13714,0.38566 -0.17098,0.53942 -0.16035,0.72862 -0.26578,1.29252 -0.3098,1.65719 -0.0312,0.25886 -0.14501,0.58291 -0.32375,0.92219 -0.20084,0.38118 -0.28501,0.63565 -0.31033,0.93812 -0.0191,0.22826 -0.114,0.66248 -0.21101,0.96492 -0.0969,0.30242 -0.2344,0.80733 -0.30544,1.122 -0.071,0.3147 -0.19635,0.65755 -0.27846,0.76193 -0.10759,0.1367 -0.14694,0.27968 -0.14092,0.5112 0.009,0.33139 -0.0335,0.53173 -0.28776,1.36979 -0.17875,0.58911 -0.20699,1.27388 -0.072,1.7435 0.0752,0.26128 0.1969,0.44038 0.49886,0.73387 0.21971,0.21352 0.44193,0.47018 0.49383,0.57034 0.11236,0.21702 0.83652,1.05635 1.1682,1.3541 0.12932,0.11612 0.43353,0.4058 0.676,0.64376 0.30489,0.29922 0.52903,0.45642 0.72679,0.50967 0.15727,0.0423 0.38775,0.16634 0.51217,0.27555 0.12443,0.10923 0.35163,0.25091 0.50486,0.31492 0.15324,0.064 0.34194,0.17407 0.41936,0.24462 0.0774,0.0706 0.2351,0.17597 0.35042,0.23425 0.11529,0.0583 0.29201,0.18243 0.39266,0.27587 0.10071,0.0934 0.36798,0.31528 0.59409,0.49296 0.22611,0.17768 0.52963,0.46494 0.67452,0.63834 0.14489,0.17341 0.44367,0.42231 0.66399,0.5531 1.26703,0.75224 1.98776,1.2513 2.28764,1.58407 0.0769,0.0853 0.25197,0.21237 0.38908,0.28236 0.13713,0.0699 0.29037,0.1767 0.34055,0.23718 0.0501,0.0604 0.14245,0.11097 0.20501,0.11225 0.0626,0.001 0.23956,0.0936 0.39332,0.2053 0.24197,0.17567 0.56644,0.37333 1.11828,0.68123 0.0769,0.0429 0.24284,0.11624 0.36879,0.16296 0.12594,0.0468 0.36183,0.19058 0.52419,0.31967 0.16237,0.12908 0.33424,0.23501 0.38194,0.23538 0.0477,5.2e-4 0.39342,0.16015 0.76826,0.35507 0.37483,0.19492 0.88081,0.40062 1.12437,0.4571 0.24358,0.0565 0.55787,0.16434 0.69846,0.23969 0.14056,0.0754 0.30961,0.13699 0.37561,0.13699 0.066,0 0.36528,0.12949 0.66503,0.28775 0.34949,0.18456 0.90848,0.38578 1.55842,0.56102 1.41703,0.38206 2.21486,0.66037 2.5981,0.90629 0.33064,0.21219 1.60972,0.70064 3.47702,1.32784 0.64299,0.21597 1.07375,0.40163 1.18983,0.51284 0.17128,0.1641 0.85611,0.5247 1.40173,0.7381 0.36981,0.14462 1.26573,0.71221 1.57659,0.9988 0.15158,0.13974 0.49143,0.43308 0.75526,0.65192 0.26383,0.21881 0.55135,0.46363 0.63894,0.54401 0.0875,0.0804 0.30419,0.26631 0.48132,0.41315 0.17716,0.14683 0.32209,0.31695 0.32209,0.37804 0,0.0611 0.19951,0.30264 0.44334,0.53678 0.40823,0.39201 0.45268,0.46447 0.56119,0.91497 0.0648,0.26911 0.17609,0.88241 0.24727,1.36292 0.0712,0.48052 0.16464,0.9622 0.20766,1.07041 0.043,0.10825 0.0782,0.39851 0.0782,0.64509 0,0.25503 0.0501,0.57362 0.11624,0.73886 0.15408,0.38513 0.17378,1.59224 0.0288,1.76742 -0.0547,0.0662 -0.40073,0.26741 -0.76881,0.4472 l -0.66927,0.32691 -0.69868,-0.0216 c -0.56901,-0.0177 -0.74401,-0.0497 -0.94294,-0.17264 -0.19007,-0.11747 -0.40713,-0.16181 -0.97873,-0.19986 -0.404,-0.027 -0.97039,-0.11342 -1.25871,-0.19236 -0.28829,-0.0789 -0.6442,-0.14402 -0.79087,-0.14466 -0.30318,-10e-4 -0.4616,-0.0719 -0.70224,-0.3125 -0.0925,-0.0925 -0.30523,-0.20513 -0.47267,-0.25022 -0.16745,-0.0451 -0.38335,-0.13771 -0.47981,-0.20584 -0.0965,-0.068 -0.28546,-0.14646 -0.42001,-0.17408 -0.13453,-0.0276 -0.50225,-0.18795 -0.81715,-0.35631 -0.31491,-0.16835 -0.89675,-0.4295 -1.29302,-0.58034 -1.84412,-0.70192 -2.15825,-0.87009 -2.60234,-1.39312 -0.11248,-0.13243 -0.30784,-0.284 -0.43423,-0.3368 -0.12637,-0.0529 -0.33316,-0.18545 -0.45953,-0.29477 -0.12637,-0.10933 -0.28225,-0.22734 -0.34641,-0.26226 -0.0642,-0.0349 -0.39442,-0.33087 -0.73388,-0.65769 -0.40397,-0.38894 -0.7904,-0.68506 -1.11849,-0.85716 -0.27573,-0.1446 -0.85064,-0.48264 -1.2776,-0.7512 -0.42698,-0.26855 -0.79898,-0.48852 -0.82668,-0.4888 -0.0276,0 -0.29773,-0.14182 -0.60006,-0.31452 -0.30234,-0.17268 -0.60461,-0.314 -0.6717,-0.314 -0.0672,0 -0.2286,-0.0722 -0.3589,-0.16045 -0.40651,-0.27536 -1.29738,-0.74814 -1.40969,-0.74814 -0.059,0 -0.31733,-0.0944 -0.57416,-0.20953 -0.25682,-0.11518 -0.64504,-0.25909 -0.8627,-0.31969 -0.21766,-0.0606 -0.69453,-0.20031 -1.05972,-0.31049 -0.36518,-0.11014 -0.9426,-0.25049 -1.28315,-0.31181 -0.34054,-0.0613 -0.74029,-0.17328 -0.88834,-0.2488 -0.14806,-0.0756 -0.31477,-0.13732 -0.3705,-0.13732 -0.13907,0 -1.26635,-0.37223 -1.65156,-0.54535 -0.3174,-0.14264 -0.98213,-0.29773 -1.81721,-0.42398 -0.75327,-0.11389 -1.72786,-0.34498 -1.95907,-0.46455 -0.11967,-0.0618 -0.49054,-0.15985 -0.82415,-0.21771 -0.45725,-0.0793 -0.74686,-0.18145 -1.17647,-0.41498 -0.31344,-0.17038 -0.62985,-0.30979 -0.70312,-0.30979 -0.0732,0 -0.3515,-0.1066 -0.61828,-0.23688 -0.26678,-0.1303 -0.75521,-0.31848 -1.0854,-0.41819 -0.53735,-0.16226 -2.07739,-0.85952 -2.71845,-1.23077 -0.13396,-0.0776 -0.30718,-0.14105 -0.38497,-0.14105 -0.0778,0 -0.28272,-0.0742 -0.4554,-0.16474 -0.17267,-0.0906 -0.39988,-0.18541 -0.50488,-0.21069 -0.10497,-0.0253 -0.29787,-0.13984 -0.42859,-0.2546 -0.1307,-0.11483 -0.26761,-0.20867 -0.30424,-0.20867 -0.15573,0 -1.45864,-0.57328 -1.59584,-0.70217 -0.0826,-0.0776 -0.41212,-0.23366 -0.73239,-0.34692 -0.34295,-0.12128 -0.67049,-0.2905 -0.79688,-0.41172 -0.11802,-0.11319 -0.43475,-0.28958 -0.70384,-0.39196 -0.85218,-0.32421 -1.00198,-0.39753 -1.16367,-0.56963 -0.16176,-0.1722 -0.43199,-0.31441 -1.10783,-0.58298 -0.21142,-0.084 -0.50333,-0.24645 -0.64865,-0.36097 -0.30255,-0.23839 -0.55168,-0.30389 -0.75073,-0.19737 -0.20848,0.11156 -0.16687,0.27931 0.15987,0.64427 0.16278,0.18182 0.45321,0.58009 0.64541,0.88507 0.19221,0.30496 0.4171,0.58657 0.49977,0.62578 0.0826,0.0392 0.18578,0.17884 0.22917,0.31028 0.0434,0.13147 0.14873,0.27112 0.23411,0.31037 0.23643,0.10879 1.01696,0.85025 1.2473,1.18503 0.14824,0.21547 0.28202,0.32052 0.486,0.38163 0.19299,0.0579 0.36947,0.18947 0.56152,0.41884 0.15403,0.18399 0.47476,0.47859 0.71272,0.6547 0.71407,0.52846 1.231,1.01415 1.41683,1.33126 0.0966,0.1647 0.27982,0.37902 0.40737,0.4763 0.17092,0.13037 0.24376,0.2512 0.2771,0.45969 0.0248,0.15556 0.0999,0.37253 0.16678,0.48215 0.37201,0.61002 2.47343,2.73077 2.90848,2.93529 0.16536,0.0777 0.43359,0.3041 0.60686,0.51219 0.48607,0.58373 1.3904,1.40908 1.95142,1.78099 0.28148,0.18659 0.59355,0.39449 0.69351,0.46199 0.0999,0.0675 0.35337,0.18746 0.56314,0.26654 0.20978,0.0791 0.51572,0.2676 0.6799,0.41892 0.16416,0.15133 0.33476,0.27515 0.37908,0.27515 0.0442,0 0.39887,0.15411 0.78786,0.3425 0.38899,0.18838 0.84879,0.37395 1.02176,0.41235 0.17298,0.0385 0.62904,0.18083 1.01345,0.31645 0.69695,0.2459 1.23107,0.36238 2.62097,0.57156 0.77262,0.11625 1.71564,0.32973 2.1788,0.49313 0.15167,0.0535 0.5491,0.161 0.88316,0.23888 0.96783,0.22559 2.64378,0.69939 3.4031,0.96208 0.38441,0.13298 0.88764,0.2989 1.11829,0.3687 0.23064,0.0698 1.09556,0.35344 1.92204,0.6303 1.99402,0.66802 2.42871,0.80061 3.21507,0.98075 0.70921,0.16245 1.69961,0.5051 1.91483,0.66249 0.11878,0.0868 0.13131,0.20718 0.13581,1.30422 0.003,0.83202 -0.0292,1.38274 -0.10464,1.76767 -0.10563,0.53861 -0.53156,1.59166 -0.84938,2.09996 -0.0841,0.13457 -0.21603,0.34449 -0.29305,0.46644 -0.23324,0.36938 -0.47306,0.46073 -1.25783,0.47915 -0.65773,0.0155 -1.19065,-0.0421 -1.92204,-0.20754 -0.17299,-0.0391 -0.45762,-0.0725 -0.63253,-0.0742 -0.17491,-0.001 -0.34788,-0.0302 -0.38441,-0.0631 -0.1042,-0.0944 -0.71836,-0.27165 -1.25457,-0.36213 -0.2691,-0.0453 -0.63079,-0.12262 -0.80377,-0.17158 -0.56604,-0.16024 -1.28129,-0.31373 -1.94725,-0.41786 -0.35982,-0.0563 -0.69006,-0.13115 -0.73386,-0.16641 -0.12432,-0.10005 -1.08332,-0.47564 -1.54374,-0.60454 -0.22863,-0.064 -0.59033,-0.20374 -0.80376,-0.31051 -0.21344,-0.10672 -0.50921,-0.21618 -0.65727,-0.24316 -0.22383,-0.0407 -1.01132,-0.38772 -1.53644,-0.6769 -0.0706,-0.0388 -0.49511,-0.13093 -0.94355,-0.20466 -0.62761,-0.10322 -0.94407,-0.19676 -1.37448,-0.40654 -0.30752,-0.1499 -0.73149,-0.32846 -0.94215,-0.39684 -0.21066,-0.0684 -0.55664,-0.20203 -0.76882,-0.297 -0.2122,-0.095 -0.97802,-0.35736 -1.70184,-0.58308 -0.72384,-0.22571 -1.5355,-0.52053 -1.80372,-0.65514 -0.26822,-0.13462 -0.70459,-0.29408 -0.96969,-0.35438 -0.26513,-0.0604 -0.55593,-0.16777 -0.64625,-0.23881 -0.0903,-0.071 -0.2814,-0.15115 -0.42461,-0.17802 -0.24756,-0.0464 -1.26473,-0.45845 -1.35522,-0.54895 -0.0236,-0.0236 -0.25214,-0.0428 -0.50808,-0.0428 -0.30555,0 -0.63158,-0.0566 -0.94937,-0.16486 -0.55818,-0.19012 -2.23105,-0.97967 -2.29504,-1.08319 -0.0237,-0.0383 -0.16059,-0.10803 -0.30421,-0.1548 -0.3717,-0.12114 -1.28917,-0.55186 -1.41942,-0.6664 -0.0605,-0.0532 -0.25318,-0.13977 -0.42828,-0.19246 -0.17509,-0.0528 -0.48735,-0.20795 -0.69385,-0.34499 -0.20652,-0.13705 -0.59232,-0.34644 -0.85733,-0.4653 -0.265,-0.11888 -0.58848,-0.30977 -0.71884,-0.42423 -0.13034,-0.11447 -0.27882,-0.20809 -0.32997,-0.20809 -0.0511,0 -0.17331,-0.0631 -0.27147,-0.1404 -0.0982,-0.0772 -0.28326,-0.15966 -0.41131,-0.1832 -0.2243,-0.0413 -1.17414,-0.54678 -1.51779,-0.80784 -0.0916,-0.0696 -0.20719,-0.12663 -0.25671,-0.12663 -0.0496,0 -0.1844,-0.0944 -0.29972,-0.20967 -0.11529,-0.11529 -0.27826,-0.20968 -0.36208,-0.20968 -0.0838,0 -0.33732,-0.15452 -0.56333,-0.34337 -0.279,-0.23312 -0.5628,-0.39334 -0.8839,-0.49895 -0.49631,-0.16329 -1.099,-0.44111 -1.27672,-0.58856 -0.0577,-0.0478 -0.20498,-0.12051 -0.32737,-0.16151 -0.1224,-0.0411 -0.46188,-0.23604 -0.75439,-0.43343 -0.29253,-0.19741 -0.75149,-0.44828 -1.01993,-0.55752 -0.26844,-0.10923 -0.59522,-0.28035 -0.72617,-0.38023 -0.13094,-0.0998 -0.25529,-0.1816 -0.27634,-0.1816 -0.021,0 -0.2067,-0.10781 -0.41259,-0.23946 -0.20588,-0.13169 -0.55614,-0.28694 -0.77836,-0.34496 -0.2222,-0.058 -0.4711,-0.16697 -0.55308,-0.24207 -0.082,-0.0752 -0.30636,-0.21989 -0.49855,-0.32171 -0.45482,-0.24096 -0.74859,-0.454 -1.24015,-0.89938 -0.43174,-0.39119 -1.86105,-1.80178 -2.1524,-2.12425 -0.0976,-0.10803 -0.51071,-0.50253 -0.91795,-0.87663 -0.67563,-0.62065 -0.77174,-0.74136 -1.09804,-1.37907 -0.28145,-0.55006 -0.35777,-0.76988 -0.35844,-1.03219 -7.7e-4,-0.3509 -0.10092,-0.76889 -0.3426,-1.43236 -0.0935,-0.25657 -0.14581,-0.56818 -0.14581,-0.86844 0,-0.3974 -0.0383,-0.54597 -0.25335,-0.98105 -0.1951,-0.39485 -0.27372,-0.66925 -0.34196,-1.19338 -0.12932,-0.9933 -0.20829,-1.22944 -0.49552,-1.48164 -0.24505,-0.21514 -0.26026,-0.21866 -0.74284,-0.1711 -0.27096,0.0268 -0.74765,0.0546 -1.05934,0.0621 -0.56103,0.0134 -1.79323,0.1853 -2.29372,0.31989 -0.24304,0.0654 -0.79808,0.14601 -1.03371,0.15019 -0.0577,0.001 -0.2546,0.0323 -0.43765,0.0696 -0.18304,0.0372 -0.59192,0.0759 -0.9086,0.086 -0.85707,0.0272 -1.28522,0.10312 -1.66891,0.29579 -0.22435,0.11273 -0.53998,0.19294 -0.90268,0.2295 -0.67751,0.0683 -1.01067,0.26897 -1.38688,0.83538 -0.24894,0.37476 -0.25167,0.38681 -0.24552,1.08411 0.0618,7.00969 0.11295,9.46563 0.20292,9.75625 0.16532,0.53374 0.191,1.17341 0.0786,1.95889 -0.0579,0.40466 -0.12724,1.26958 -0.15408,1.92205 -0.0269,0.65244 -0.0894,1.32332 -0.1391,1.49081 -0.0577,0.19449 -0.0682,0.36272 -0.029,0.46553 0.13341,0.3509 0.34898,1.38999 0.34898,1.68216 0,0.24657 0.10071,0.50477 0.49528,1.27002 0.52916,1.02629 0.63174,1.17635 0.85191,1.24622 0.0773,0.0246 0.28376,0.13542 0.45877,0.24641 0.175,0.11096 0.40794,0.2018 0.51765,0.2018 0.10968,0 0.28553,0.0446 0.39072,0.0989 0.10519,0.0544 0.37884,0.11869 0.6081,0.1429 0.51534,0.0544 0.56842,0.0634 1.64238,0.28012 1.41028,0.28454 1.76453,0.37035 2.09557,0.50759 0.17232,0.0714 0.56492,0.18666 0.87245,0.25604 0.30751,0.0694 0.80127,0.21741 1.09725,0.32891 0.29598,0.11154 0.59478,0.2029 0.664,0.20313 0.2722,7.7e-4 0.66508,0.15687 0.88818,0.35276 0.1289,0.1132 0.40324,0.2599 0.60966,0.32606 0.20642,0.0662 0.50111,0.20306 0.65488,0.30421 0.15376,0.10115 0.54693,0.31625 0.87369,0.47799 0.62669,0.3102 1.65131,1.15387 2.01946,1.66284 0.21777,0.30107 0.35715,0.77935 0.35624,1.22256 -5.1e-4,0.24772 -0.0438,0.34666 -0.24461,0.55848 -0.13421,0.14157 -0.24402,0.31544 -0.24402,0.38633 0,0.35076 -0.44091,0.6495 -0.95756,0.64879 -0.70171,-0.001 -2.32891,0.27935 -2.69085,0.46356 -0.10377,0.0529 -0.26484,0.0961 -0.35785,0.0961 -0.27836,0 -1.04516,0.27275 -1.23413,0.43901 -0.0969,0.0853 -0.35905,0.24937 -0.58241,0.36459 -0.834,0.43027 -1.50535,1.09829 -1.65591,1.64773 -0.16633,0.60707 -1.03737,1.10243 -1.80826,1.02835 -0.3987,-0.0383 -0.93781,-0.30134 -1.27153,-0.62035 -0.13714,-0.13109 -0.44989,-0.34843 -0.695,-0.48299 -0.24512,-0.13454 -0.69905,-0.46199 -1.00873,-0.72766 -0.53962,-0.46295 -1.12824,-0.80784 -1.38119,-0.8093 -0.0657,-5.1e-4 -0.23509,-0.0793 -0.37669,-0.1754 -0.14161,-0.0961 -0.32766,-0.17474 -0.41345,-0.17474 -0.20256,0 -0.96153,-0.31807 -2.09696,-0.87879 -0.50024,-0.24704 -0.93768,-0.44916 -0.97207,-0.44916 -0.0344,0 -0.33811,-0.12691 -0.67486,-0.28205 -0.33676,-0.15513 -0.76425,-0.32435 -0.94997,-0.37606 -0.39945,-0.1112 -1.30023,-0.49056 -1.84036,-0.77507 -0.21142,-0.11132 -0.55324,-0.27278 -0.75957,-0.35869 -0.81232,-0.33823 -1.02398,-0.71486 -1.19258,-2.12212 -0.0346,-0.2883 -0.10114,-0.67536 -0.14795,-0.86011 -0.0554,-0.21857 -0.0732,-0.64521 -0.0511,-1.22135 0.024,-0.62486 0.009,-0.94766 -0.0543,-1.09693 -0.0885,-0.21165 -0.20536,-1.05633 -0.30987,-2.23829 -0.0644,-0.72838 -0.1465,-1.10367 -0.3058,-1.39785 -0.0625,-0.1153 -0.11377,-0.24428 -0.114,-0.28657 0,-0.0423 -0.0956,-0.20824 -0.21193,-0.36883 -0.11635,-0.16059 -0.28982,-0.47196 -0.38552,-0.69194 -0.0957,-0.21999 -0.22612,-0.49432 -0.28982,-0.60964 -0.34509,-0.6248 -0.49646,-0.95737 -0.64176,-1.40984 -0.0899,-0.2797 -0.26007,-0.61947 -0.38526,-0.76882 -0.12337,-0.14718 -0.36214,-0.51134 -0.53059,-0.80926 -0.19978,-0.35328 -0.34893,-0.54168 -0.42888,-0.54168 -0.0778,0 -0.29375,-0.25798 -0.59158,-0.70678 -0.47754,-0.71963 -0.52344,-0.76076 -1.43417,-1.28516 -0.55168,-0.31764 -1.2038,-0.9338 -1.37718,-1.30121 -0.18355,-0.38898 -0.95628,-1.10194 -1.65655,-1.52849 -0.26909,-0.16389 -0.50001,-0.32635 -0.51317,-0.36102 -0.0131,-0.0346 -0.13896,-0.12173 -0.27957,-0.1935 -0.14061,-0.0718 -0.31429,-0.19531 -0.38595,-0.27455 -0.0718,-0.0792 -0.29182,-0.22809 -0.48924,-0.33079 -0.34933,-0.18171 -0.65473,-0.45932 -0.8976,-0.81594 -0.0657,-0.0963 -0.20606,-0.19692 -0.31212,-0.22354 -0.22854,-0.0575 -0.83052,-0.4854 -0.88602,-0.62997 -0.0213,-0.0558 -0.22081,-0.15418 -0.44321,-0.21884 -0.22239,-0.0647 -0.45191,-0.14311 -0.51004,-0.17435 -0.63344,-0.34043 -1.79307,-0.45736 -2.10565,-0.21228 -0.0916,0.0719 -0.27677,0.15353 -0.41131,0.18148 -0.57892,0.12025 -1.88711,1.24345 -1.88711,1.62024 0,0.085 -0.11179,0.33745 -0.24833,0.56124 -0.13659,0.2238 -0.27632,0.45408 -0.31052,0.51174 -0.0342,0.0577 -0.16287,0.31756 -0.28592,0.57758 -0.22584,0.47715 -0.47016,0.74237 -1.05332,1.1434 -0.21256,0.14616 -0.37085,0.33091 -0.47914,0.55915 -0.0889,0.18746 -0.30756,0.49809 -0.48582,0.6903 -0.17823,0.1922 -0.45161,0.52245 -0.60749,0.73388 -0.15588,0.21142 -0.42683,0.51022 -0.60211,0.66398 -1.31277,1.15159 -1.60373,1.39448 -1.90817,1.59282 -0.27657,0.18016 -0.39268,0.32143 -0.58909,0.71676 -0.36842,0.74158 -0.47015,0.86811 -0.83303,1.03624 -0.18321,0.0849 -0.50319,0.32232 -0.71106,0.52766 -0.20787,0.20533 -0.5981,0.53755 -0.86721,0.73825 -0.26908,0.20071 -0.55215,0.43655 -0.62902,0.52409 -0.0769,0.0875 -0.2656,0.21521 -0.41936,0.28369 -0.15376,0.0684 -0.38965,0.25292 -0.5242,0.40988 -0.13453,0.15698 -0.4805,0.53609 -0.76881,0.8425 -0.28831,0.30641 -0.5871,0.6241 -0.66398,0.70599 -0.40985,0.43655 -1.13464,1.04397 -1.24579,1.04406 -0.0701,0 -0.30601,0.16883 -0.52418,0.37504 -0.2182,0.2062 -0.46515,0.41051 -0.54881,0.454 -0.20716,0.1077 -0.55862,0.63958 -0.82547,1.24916 -0.15812,0.36124 -0.28907,0.55121 -0.45889,0.66565 -0.13069,0.0881 -0.31114,0.26947 -0.401,0.4031 -0.0899,0.13362 -0.23773,0.32158 -0.32859,0.41768 -0.20391,0.21569 -0.77389,0.62905 -0.86736,0.62905 -0.0378,0 -0.27106,0.17154 -0.51818,0.38119 -0.24713,0.20964 -0.59002,0.46913 -0.76198,0.57662 -0.8976,0.56101 -1.04775,0.68288 -1.28886,1.04612 -0.14015,0.21116 -0.34756,0.45211 -0.46088,0.53544 -0.1133,0.0833 -0.26626,0.26907 -0.33986,0.41277 -0.0736,0.14371 -0.38109,0.52381 -0.68331,0.84468 -0.30223,0.32087 -0.58595,0.65148 -0.63049,0.73468 -0.0446,0.0832 -0.12459,0.15129 -0.17793,0.15129 -0.0533,0 -0.13246,0.10759 -0.17583,0.23904 -0.0434,0.13147 -0.12447,0.27685 -0.18018,0.32307 -0.0557,0.0462 -0.10125,0.15735 -0.10125,0.24692 0,0.10607 -0.0976,0.24137 -0.27957,0.38755 -0.21533,0.17306 -0.28008,0.27418 -0.28179,0.44013 -10e-4,0.1185 -0.0484,0.27651 -0.10485,0.35113 -0.0565,0.0746 -0.10268,0.18267 -0.10268,0.24011 0,0.0575 -0.0652,0.17375 -0.14466,0.25844 -0.0795,0.0848 -0.1612,0.25898 -0.18143,0.38731 -0.0203,0.12834 -0.12752,0.33669 -0.23845,0.46302 -0.27391,0.31196 -0.40156,0.57509 -0.45454,0.93688 -0.0429,0.2929 -0.114,0.52821 -0.38737,1.28287 -0.0696,0.1922 -0.12766,0.46361 -0.12891,0.60312 -0.001,0.1395 -0.0778,0.42257 -0.17023,0.62903 -0.1423,0.31808 -0.18532,0.59943 -0.28187,1.84313 -0.13473,1.73606 -0.12208,1.2367 -0.11072,4.37067 0.01,2.58091 0.0395,2.98447 0.23891,3.20484 0.11471,0.12675 0.16193,0.25232 0.35784,0.95139 0.0647,0.23064 0.14365,0.48225 0.17557,0.55913 0.0319,0.0769 0.0947,0.31278 0.13955,0.52421 0.18918,0.89218 0.76251,1.82744 1.91164,3.11849 1.0529,1.18292 1.16174,1.3225 1.16174,1.49003 0,0.0843 0.0376,0.22207 0.0836,0.30602 0.0575,0.10497 0.0786,0.52227 0.0676,1.33624 -0.0142,1.0545 -0.0316,1.20885 -0.15914,1.41533 -0.0788,0.12745 -0.18496,0.23176 -0.23595,0.23176 -0.051,0 -0.23836,0.14152 -0.41634,0.31451 -0.17799,0.17297 -0.37744,0.31472 -0.44325,0.31498 -0.0658,0 -0.21398,0.0644 -0.3293,0.14277 -0.3473,0.23572 -0.68442,0.36974 -0.95574,0.37991 -0.14825,0.005 -0.36982,0.0865 -0.52419,0.19143 -0.14706,0.0999 -0.4477,0.21812 -0.66806,0.26251 -0.22035,0.0445 -0.41878,0.11002 -0.44096,0.14589 -0.066,0.10661 -0.25562,0.0696 -0.62612,-0.12244 z"
       id="path20"
       inkscape:connector-curvature="0"
       sodipodi:nodetypes="ccccccccccccccccsccsccccccsscssccsccccscccscccsccscccccccccccccccccccccccccccscccsccccscccsccccccscsccccccccccsscccsscscscccccccccccccccccsccssccccccscsccccccccccccscccscccccccccccccccscccsccccccsccsccccccccccsccscccssccsccccccsccccccccccccccccccccsccscccccscccccsccccccccccccccscscccscscscsssccccccccsccccccssccssccsccccccccccsccccccccccsccccccccccccccscccscsccccccccscsssccccsccccccccsscccccsccccccccccccccccccccccccccccccscccccsccsccccccsccccccccccccccccccccscccscccccccccsccccccccccssccsscccccscsccscccccccccccccscscccccscccscscccscccscccccccccccccccccccccccccccscccccccccccccccccccccscccccccccccccccsccsccsccscccssscccccccsccccccccccscccsccccccccccccccscccsccccccccccccccsccscccccccccscscccccccccccccccccscccccccccccccccscccccccccccccccccccccccccsccccsccsccscccsccsccscsccccccscccsscccccccc" />
  </g>
</svg>
